<?xml version="1.0" encoding="UTF-8"?>
<svg width="144px" height="28px" viewBox="0 0 144 28" version="1.1" xmlns="http://www.w3.org/2000/svg" xmlns:xlink="http://www.w3.org/1999/xlink">
    <!-- Generator: Sketch 46.1 (44463) - http://www.bohemiancoding.com/sketch -->
    <title>Dandelion Blue Wordmark</title>
    <desc>Created with Sketch.</desc>
    <defs>
        <polygon id="path-1" points="15.2 0.46352 15.2 26.86592 0.4036 26.86592 0.4036 0.46352"></polygon>
    </defs>
    <g id="Desktop-Mocks" stroke="none" stroke-width="1" fill="none" fill-rule="evenodd">
        <g id="Homepage" transform="translate(-244.000000, -21.000000)">
            <g id="01-Top-Navigation" transform="translate(0.000000, -1.000000)">
                <g id="Dandelion-Blue-Wordmark" transform="translate(244.000000, 22.000000)">
                    <path d="M10.0656,18.7028 C10.0656,20.914 9.6664,23.174 6.712,23.174 L4.9288,23.174 C4.7168,23.174 4.5456,23.0028 4.5456,22.7908 L4.5456,5.918 C4.5456,5.706 4.7168,5.5348 4.9288,5.5348 L6.712,5.5348 C8.968,5.5348 10.0656,6.8508 10.0656,9.5596 L10.0656,18.7028 Z M7.2312,1.1348 L0.5832,1.1348 C0.2616,1.1348 0,1.3964 0,1.718 L0,26.954 C0,27.2756 0.2616,27.5372 0.5832,27.5372 L7.2312,27.5372 C11.8288,27.5372 14.5736,24.4852 14.5736,19.3716 L14.5736,9.2996 C14.5736,4.1868 11.8288,1.1348 7.2312,1.1348 L7.2312,1.1348 Z" id="Fill-1" fill="#21324F"></path>
                    <path d="M26.97576,18.27544 C26.90216,18.36504 26.79416,18.41704 26.67736,18.41704 L23.29896,18.41704 C23.18376,18.41704 23.07416,18.36504 23.00136,18.27464 C22.92856,18.18424 22.90056,18.06744 22.92536,17.95464 L24.92536,8.49224 C24.93816,8.43304 24.99016,8.42824 25.00536,8.42824 C25.02136,8.42824 25.07256,8.43304 25.08536,8.49304 L27.05336,17.95544 C27.07656,18.06904 27.04856,18.18584 26.97576,18.27544 L26.97576,18.27544 Z M27.53176,1.58344 C27.46936,1.31944 27.23576,1.13464 26.96456,1.13464 L23.04616,1.13464 C22.77656,1.13464 22.54376,1.31784 22.48056,1.58104 L16.39816,26.81784 C16.35736,26.99224 16.39656,27.17464 16.50856,27.31544 C16.61976,27.45624 16.78696,27.53704 16.96616,27.53704 L20.38536,27.53704 C20.65976,27.53704 20.89336,27.34984 20.95496,27.08104 L21.93656,22.70744 C21.97576,22.53144 22.12856,22.40824 22.31016,22.40824 L27.62536,22.40824 C27.80376,22.40824 27.96136,22.53544 27.99976,22.70984 L28.94856,27.07784 C29.00616,27.34344 29.24616,27.53704 29.51816,27.53704 L32.93816,27.53704 C33.11816,27.53704 33.28376,27.45624 33.39416,27.31544 C33.50616,27.17544 33.54616,26.99384 33.50536,26.81944 L27.53176,1.58344 Z" id="Fill-3" fill="#21324F"></path>
                    <path d="M50.51488,1.17192 L47.09728,1.17192 C46.77568,1.17192 46.51488,1.43352 46.51488,1.75512 L46.51488,15.78232 C46.51488,15.84472 46.46448,15.85912 46.44848,15.86232 C46.43168,15.86392 46.38048,15.86952 46.35808,15.81272 L40.69968,1.50312 C40.61168,1.27912 40.39808,1.13512 40.15808,1.13512 L36.88368,1.13512 C36.56288,1.13512 36.30048,1.39592 36.30048,1.71752 L36.30048,26.95432 C36.30048,27.27512 36.56288,27.53752 36.88368,27.53752 L40.26368,27.53752 C40.58528,27.53752 40.84608,27.27512 40.84608,26.95432 L40.84608,13.09352 C40.84608,13.03192 40.89648,13.01752 40.91168,13.01432 C40.92688,13.01192 40.97888,13.00472 41.00208,13.06392 L46.69648,27.17272 C46.78688,27.39432 46.99888,27.53752 47.23728,27.53752 L50.51488,27.53752 C50.83488,27.53752 51.09648,27.27512 51.09648,26.95432 L51.09648,1.75512 C51.09648,1.43352 50.83488,1.17192 50.51488,1.17192" id="Fill-5" fill="#21324F"></path>
                    <path d="M64.9992,18.7028 C64.9992,20.914 64.6008,23.174 61.6456,23.174 L59.8624,23.174 C59.6504,23.174 59.4792,23.0028 59.4792,22.7908 L59.4792,5.918 C59.4792,5.706 59.6504,5.5348 59.8624,5.5348 L61.6456,5.5348 C63.9024,5.5348 64.9992,6.8508 64.9992,9.5596 L64.9992,18.7028 Z M62.1648,1.1348 L55.5168,1.1348 C55.1952,1.1348 54.9336,1.3964 54.9336,1.718 L54.9336,26.954 C54.9336,27.2756 55.1952,27.5372 55.5168,27.5372 L62.1648,27.5372 C66.7632,27.5372 69.5072,24.4852 69.5072,19.3716 L69.5072,9.2996 C69.5072,4.1868 66.7632,1.1348 62.1648,1.1348 L62.1648,1.1348 Z" id="Fill-7" fill="#21324F"></path>
                    <path d="M84.71952,1.1348 L73.50352,1.1348 C73.18192,1.1348 72.92112,1.3964 72.92112,1.718 L72.92112,26.954 C72.92112,27.2756 73.18192,27.5372 73.50352,27.5372 L84.71952,27.5372 C85.04112,27.5372 85.30272,27.2756 85.30272,26.954 L85.30272,23.7204 C85.30272,23.3988 85.04112,23.1372 84.71952,23.1372 L77.84912,23.1372 C77.63792,23.1372 77.46672,22.9652 77.46672,22.754 L77.46672,16.6212 C77.46672,16.41 77.63792,16.238 77.84912,16.238 L82.71472,16.238 C83.03552,16.238 83.29712,15.9764 83.29712,15.6548 L83.29712,12.794 C83.29712,12.4716 83.03552,12.21 82.71472,12.21 L77.84912,12.21 C77.63792,12.21 77.46672,12.038 77.46672,11.8268 L77.46672,5.9548 C77.46672,5.7436 77.63792,5.5716 77.84912,5.5716 L84.71952,5.5716 C85.04112,5.5716 85.30272,5.31 85.30272,4.9884 L85.30272,1.718 C85.30272,1.3964 85.04112,1.1348 84.71952,1.1348" id="Fill-9" fill="#21324F"></path>
                    <path d="M99.60624,23.1372 L93.47824,23.1372 C93.26704,23.1372 93.09584,22.9652 93.09584,22.754 L93.09584,1.718 C93.09584,1.3964 92.83344,1.1348 92.51264,1.1348 L89.09584,1.1348 C88.77424,1.1348 88.51344,1.3964 88.51344,1.718 L88.51344,26.954 C88.51344,27.2756 88.77424,27.5372 89.09584,27.5372 L99.60624,27.5372 C99.92784,27.5372 100.18944,27.2756 100.18944,26.954 L100.18944,23.7204 C100.18944,23.3988 99.92784,23.1372 99.60624,23.1372" id="Fill-11" fill="#21324F"></path>
                    <path d="M107.04608,1.1348 L103.66608,1.1348 C103.34528,1.1348 103.08368,1.3964 103.08368,1.718 L103.08368,26.954 C103.08368,27.2756 103.34528,27.5372 103.66608,27.5372 L107.04608,27.5372 C107.36768,27.5372 107.62928,27.2756 107.62928,26.954 L107.62928,1.718 C107.62928,1.3964 107.36768,1.1348 107.04608,1.1348" id="Fill-13" fill="#21324F"></path>
                    <path d="M121.2484,20.37544 C121.2484,23.16984 119.266,23.47224 118.4148,23.47224 C117.3692,23.47224 115.618,23.06984 115.618,20.37544 L115.618,8.29624 C115.618,5.60264 117.3692,5.20024 118.4148,5.20024 C119.4724,5.20024 121.2484,5.60264 121.2484,8.29624 L121.2484,20.37544 Z M118.4148,0.80024 C114.0916,0.80024 111.0724,3.95864 111.0724,8.48184 L111.0724,20.22664 C111.0724,24.72824 114.0916,27.87144 118.4148,27.87144 C122.7588,27.87144 125.794,24.72824 125.794,20.22664 L125.794,8.48184 C125.794,3.95864 122.7588,0.80024 118.4148,0.80024 L118.4148,0.80024 Z" id="Fill-15" fill="#21324F"></path>
                    <g id="Group-19" transform="translate(128.800000, 0.671600)">
                        <mask id="mask-2" fill="white">
                            <use xlink:href="#path-1"></use>
                        </mask>
                        <g id="Clip-18"></g>
                        <path d="M14.618,0.50032 L11.2012,0.50032 C10.8796,0.50032 10.618,0.76192 10.618,1.08352 L10.618,15.11072 C10.618,15.17312 10.5676,15.18752 10.5516,15.19072 C10.5356,15.19232 10.4836,15.19792 10.462,15.14112 L4.802,0.83152 C4.7148,0.60832 4.502,0.46352 4.2612,0.46352 L0.9868,0.46352 C0.666,0.46352 0.4036,0.72432 0.4036,1.04592 L0.4036,26.28272 C0.4036,26.60352 0.666,26.86592 0.9868,26.86592 L4.3668,26.86592 C4.6884,26.86592 4.9492,26.60352 4.9492,26.28272 L4.9492,12.42192 C4.9492,12.36032 4.9996,12.34592 5.0148,12.34272 C5.0324,12.33952 5.0828,12.33552 5.1052,12.39232 L10.8004,26.50112 C10.89,26.72192 11.1012,26.86592 11.3412,26.86592 L14.618,26.86592 C14.938,26.86592 15.2004,26.60352 15.2004,26.28272 L15.2004,1.08352 C15.2004,0.76192 14.938,0.50032 14.618,0.50032" id="Fill-17" fill="#21324F" mask="url(#mask-2)"></path>
                    </g>
                </g>
            </g>
        </g>
    </g>
</svg>