<?xml version="1.0" encoding="UTF-8"?>
<svg width="70px" height="55px" viewBox="0 0 70 55" version="1.1" xmlns="http://www.w3.org/2000/svg" xmlns:xlink="http://www.w3.org/1999/xlink">
    <!-- Generator: Sketch 49.3 (51167) - http://www.bohemiancoding.com/sketch -->
    <title>Page 1</title>
    <desc>Created with Sketch.</desc>
    <defs>
        <polygon id="path-1" points="0 0.174785276 69.7823311 0.174785276 69.7823311 23.8702834 0 23.8702834"></polygon>
    </defs>
    <g id="04-FAQs" stroke="none" stroke-width="1" fill="none" fill-rule="evenodd">
        <g id="FAQs-Collapsed-Wireframe" transform="translate(-98.000000, -2769.000000)">
            <g id="Page-1" transform="translate(98.000000, 2769.000000)">
                <path d="M53.074663,22.3974628 C52.3831765,21.9973462 51.4977711,22.2325978 51.09669,22.9232358 L39.8560143,42.2374812 C39.4549333,42.9281193 36.7868927,48.8136591 37.4788522,49.2142481 C38.1703387,49.6143646 41.9588522,44.3774199 42.3599333,43.6867818 L53.6006089,24.3730088 C54.00169,23.6823708 53.7661495,22.7980518 53.074663,22.3974628" id="Fill-1" fill="#21324F"></path>
                <path d="M62.3402027,51.9631902 L46.9652703,51.9631902 C46.1664189,51.9631902 39.7297297,52.6098957 39.7297297,53.4087117 C39.7297297,54.2065828 46.1664189,54.8532883 46.9652703,54.8532883 L62.3402027,54.8532883 C63.1390541,54.8532883 63.787027,54.2065828 63.787027,53.4087117 C63.787027,52.6098957 63.1390541,51.9631902 62.3402027,51.9631902" id="Fill-3" fill="#21324F"></path>
                <path d="M39.2785566,51.2044212 C39.6791647,51.8950593 45.5733539,49.2335992 46.2648404,48.8334826 L62.3246377,39.5424642 C63.0161242,39.14282 63.2521377,38.258501 62.8515296,37.567863 C62.4509215,36.8767525 61.5655161,36.641501 60.8740296,37.0416176 L44.8142323,46.3321636 C44.1227458,46.7322801 38.8779485,50.5133108 39.2785566,51.2044212" id="Fill-5" fill="#21324F"></path>
                <path d="M36.4752027,17.5068712 C36.4752027,16.709 35.8277027,16.0613497 35.0279054,16.0613497 C34.2290541,16.0613497 33.5810811,16.709 33.5810811,17.5068712 L33.5815541,41.4004908 C33.5815541,42.1988344 34.2290541,48.6271534 35.0279054,48.6271534 C35.8277027,48.6271534 36.4752027,42.1988344 36.4752027,41.4004908 L36.4752027,17.5068712 Z" id="Fill-7" fill="#21324F"></path>
                <path d="M32.3988902,49.2139176 C33.0903767,48.8133287 30.4223361,42.9277888 30.022201,42.2371508 L18.7805794,22.9233777 C18.3794983,22.2327397 17.4940929,21.9974882 16.8026064,22.3971323 C16.1111199,22.7977213 15.8755794,23.6820403 16.2766605,24.3726784 L27.5182821,43.6869238 C27.9184172,44.3775618 31.7074037,49.6145066 32.3988902,49.2139176" id="Fill-9" fill="#21324F"></path>
                <path d="M6.14864865,53.4087117 C6.14864865,54.2065828 6.79662162,54.8537607 7.59547297,54.8537607 L22.9699324,54.8537607 C23.7697297,54.8537607 30.205473,54.2065828 30.205473,53.4087117 C30.205473,52.6103681 23.7697297,51.9631902 22.9699324,51.9631902 L7.59547297,51.9631902 C6.79662162,51.9631902 6.14864865,52.6103681 6.14864865,53.4087117" id="Fill-11" fill="#21324F"></path>
                <path d="M7.28972231,37.567863 C6.8891142,38.258501 7.12512772,39.14282 7.8166142,39.5429366 L23.8764115,48.833955 C24.567898,49.2335992 30.4620872,51.8950593 30.8626953,51.2044212 C31.2637764,50.5133108 26.0185061,46.7322801 25.3270196,46.3321636 L9.26722231,37.0416176 C8.57573583,36.641501 7.69033042,36.8767525 7.28972231,37.567863" id="Fill-13" fill="#21324F"></path>
                <g id="Group-17">
                    <mask id="mask-2" fill="white">
                        <use xlink:href="#path-1"></use>
                    </mask>
                    <g id="Clip-16"></g>
                    <path d="M69.0097365,20.8918479 L34.892777,0.174596319 L0.77297973,20.8918479 C0.0138581081,21.3529031 -0.227358108,22.3402037 0.234263514,23.0983939 C0.536966216,23.5958233 1.06669595,23.8702834 1.60966892,23.8702834 C1.89439865,23.8702834 2.18243919,23.7947006 2.44352027,23.6364491 L34.892777,3.93342454 L67.3391959,23.6364491 C68.0978446,24.0970319 69.0868311,23.8556393 69.5484527,23.0983939 C70.0091284,22.3402037 69.7683851,21.3529031 69.0097365,20.8918479" id="Fill-15" fill="#21324F" mask="url(#mask-2)"></path>
                </g>
            </g>
        </g>
    </g>
</svg>