<svg xmlns="http://www.w3.org/2000/svg" xmlns:xlink="http://www.w3.org/1999/xlink" width="26" height="33" version="1.1" viewBox="0 0 26 33"><defs><polygon id="path-1" points="0 .26 25.181 .26 25.181 32.111 0 32.111"/></defs><g id="02-Homepage" fill="none" fill-rule="evenodd" stroke="none" stroke-width="1"><g id="Homepage-Wireframe" transform="translate(-1019.000000, -3911.000000)"><g id="Page-1" transform="translate(1019.000000, 3911.000000)"><path id="Fill-1" fill="#BABDC2" d="M12.6276222,22.8151333 C11.7696222,22.8151333 11.0714741,22.1304111 11.0714741,21.2889111 C11.0714741,20.4474111 11.7696222,19.7626889 12.6276222,19.7626889 C13.4856222,19.7626889 14.1837704,20.4474111 14.1837704,21.2889111 C14.1837704,22.1304111 13.4856222,22.8151333 12.6276222,22.8151333 M12.6276222,18.1571333 C10.8673259,18.1571333 9.4354,19.5624667 9.4354,21.2889111 C9.4354,22.7584667 10.4773259,23.9871889 11.8716963,24.3224667 L11.8716963,27.5024111 L13.5077704,27.5024111 L13.5077704,24.2846889 C14.8385852,23.9069111 15.8198444,22.7140778 15.8198444,21.2889111 C15.8198444,19.5624667 14.3879185,18.1571333 12.6276222,18.1571333"/><g id="Group-5" transform="translate(0.000000, 0.684344)"><mask id="mask-2" fill="#fff"><use xlink:href="#path-1"/></mask><path id="Fill-3" fill="#BABDC2" d="M23.544637,30.5053667 L1.63626667,30.5053667 L1.63626667,13.0680889 L5.00278519,13.0680889 L20.3755259,13.0680889 L23.544637,13.0680889 L23.544637,30.5053667 Z M5.8213037,8.60181111 C5.8213037,4.88731111 8.90278519,1.86603333 12.6901185,1.86603333 C16.4764889,1.86603333 19.5570074,4.88731111 19.5570074,8.60181111 L19.5570074,11.4625333 L5.8213037,11.4625333 L5.8213037,8.60181111 Z M24.3631556,11.4625333 L21.1940444,11.4625333 L21.1940444,8.60181111 C21.1940444,4.00236667 17.3797481,0.260477778 12.6901185,0.260477778 C7.99952593,0.260477778 4.18522963,4.00236667 4.18522963,8.60181111 L4.18522963,11.4625333 L0.817748148,11.4625333 C0.366118519,11.4625333 0.000192592593,11.8223667 0.000192592593,12.2653111 L0.000192592593,31.3081444 C0.000192592593,31.7510889 0.366118519,32.1109222 0.817748148,32.1109222 L24.3631556,32.1109222 C24.8147852,32.1109222 25.1807111,31.7510889 25.1807111,31.3081444 L25.1807111,12.2653111 C25.1807111,11.8223667 24.8147852,11.4625333 24.3631556,11.4625333 Z" mask="url(#mask-2)"/></g></g></g></g></svg>