<svg xmlns="http://www.w3.org/2000/svg" xmlns:xlink="http://www.w3.org/1999/xlink" width="32" height="28" version="1.1" viewBox="0 0 32 28"><defs><polygon id="path-1" points="0 0 31.509 0 31.509 27.138 0 27.138"/></defs><g id="02-Homepage" fill="none" fill-rule="evenodd" stroke="none" stroke-width="1"><g id="Homepage-Wireframe" transform="translate(-780.000000, -3917.000000)"><g id="Page-1" transform="translate(780.000000, 3917.000000)"><mask id="mask-2" fill="#fff"><use xlink:href="#path-1"/></mask><path id="Fill-1" fill="#BABDC2" d="M13.568,25.5381647 C6.96847059,25.5381647 1.59905882,20.1687529 1.59905882,13.5692235 C1.59905882,6.96969412 6.96847059,1.60028235 13.568,1.60028235 C17.9068235,1.60028235 21.7044706,3.92969412 23.8023529,7.39510588 L14.128,16.8727529 L6.84235294,10.1536941 L5.75811765,11.3301647 L13.6018824,18.5649882 C13.7552941,18.7071059 13.9491765,18.7767529 14.144,18.7767529 C14.3463529,18.7767529 14.5487059,18.7005176 14.704,18.5480471 L24.5769412,8.87557647 C25.1943529,10.3184 25.5378824,11.9042824 25.5378824,13.5692235 C25.5378824,20.1687529 20.1684706,25.5381647 13.568,25.5381647 Z M31.5087059,2.08592941 L30.3887059,0.943341176 L24.9741176,6.24687059 C22.5581176,2.49628235 18.3529412,0.000282352941 13.568,0.000282352941 C6.08658824,0.000282352941 0,6.08687059 0,13.5692235 C0,21.0515765 6.08658824,27.1381647 13.568,27.1381647 C21.0503529,27.1381647 27.1369412,21.0515765 27.1369412,13.5692235 C27.1369412,11.4638118 26.6409412,9.47604706 25.7816471,7.69628235 L31.5087059,2.08592941 Z" mask="url(#mask-2)"/></g></g></g></svg>