<svg width="40px" height="33px" viewBox="0 0 40 33" version="1.1" xmlns="http://www.w3.org/2000/svg" xmlns:xlink="http://www.w3.org/1999/xlink">
    <defs>
        <polygon id="path-1" points="9.30232558e-05 0.737125714 39.5618605 0.737125714 39.5618605 23.57124 9.30232558e-05 23.57124"></polygon>
    </defs>
    <g id="02-Homepage" stroke="none" stroke-width="1" fill="none" fill-rule="evenodd">
        <g id="Homepage-Wireframe" transform="translate(-574.000000, -3972.000000)">
            <g id="Page-1" transform="translate(574.000000, 3972.000000)">
                <g id="Group-3" transform="translate(0.000000, 9.015600)">
                    <mask id="mask-2" fill="white">
                        <use xlink:href="#path-1"></use>
                    </mask>
                    <g id="Clip-2"></g>
                    <path d="M37.9814884,21.9683829 L5.52009302,21.9683829 L5.52009302,12.8603829 L13.055907,12.8603829 L37.9814884,12.8603829 L37.9814884,21.9683829 Z M7.73218605,7.13818286 C8.85311628,7.13818286 9.76474419,8.06218286 9.76474419,9.19832571 C9.76474419,10.3335257 8.85311628,11.2575257 7.73218605,11.2575257 C6.61218605,11.2575257 5.70055814,10.3335257 5.70055814,9.19832571 C5.70055814,8.06218286 6.61218605,7.13818286 7.73218605,7.13818286 Z M13.8466047,7.13818286 L33.1266047,7.13818286 C35.5340465,7.13818286 37.5377674,8.92395429 37.9173023,11.2575257 L13.8466047,11.2575257 L13.8466047,7.13818286 Z M3.93869767,12.0589543 L3.93869767,21.9683829 L1.58055814,21.9683829 L1.58055814,2.33998286 L3.93869767,2.33998286 L3.93869767,12.0589543 Z M33.1266047,5.53532571 L13.055907,5.53532571 C12.6186977,5.53532571 12.2652093,5.89455429 12.2652093,6.33675429 L12.2652093,11.2575257 L10.7163721,11.2575257 C11.1126512,10.6701257 11.3452093,9.96109714 11.3452093,9.19832571 C11.3452093,7.17872571 9.72474419,5.53532571 7.73218605,5.53532571 C6.89497674,5.53532571 6.13311628,5.83798286 5.52009302,6.32449714 L5.52009302,1.53855429 C5.52009302,1.09635429 5.16660465,0.737125714 4.72939535,0.737125714 L0.790790698,0.737125714 C0.353581395,0.737125714 9.30232558e-05,1.09635429 9.30232558e-05,1.53855429 L9.30232558e-05,22.7698114 C9.30232558e-05,23.2120114 0.353581395,23.57124 0.790790698,23.57124 L4.72939535,23.57124 L38.772186,23.57124 C39.2084651,23.57124 39.5619535,23.2120114 39.5619535,22.7698114 L39.5619535,12.0589543 C39.5619535,8.46195429 36.6754419,5.53532571 33.1266047,5.53532571 Z" id="Fill-1" fill="#BABDC2" mask="url(#mask-2)"></path>
                </g>
                <path d="M31.8677209,1.73796857 C31.6900465,2.28482571 31.5988837,2.85996857 31.5988837,3.44642571 C31.5988837,5.77622571 33.0649302,7.79771143 35.131907,8.57085429 C34.4844651,9.05642571 33.6937674,9.32796857 32.8677209,9.32796857 C30.7663256,9.32796857 29.0565581,7.59499714 29.0565581,5.46602571 C29.0565581,3.68591143 30.2500465,2.18394 31.8677209,1.73796857 M32.8677209,10.9308257 C34.6491163,10.9308257 36.3133023,10.0388829 37.3207442,8.54539714 C37.4807442,8.30874 37.5030698,8.00325429 37.3793488,7.74396857 C37.2556279,7.48562571 37.0053953,7.31402571 36.7226047,7.29422571 C34.7356279,7.15374 33.1793488,5.46414 33.1793488,3.44642571 C33.1793488,2.66574 33.4091163,1.91334 33.8426047,1.27031143 C34.0035349,1.03365429 33.9988837,0.726282857 33.8751628,0.466997143 C33.7523721,0.208654286 33.476093,0.0351685714 33.1933023,0.0144257143 C33.0853953,0.00782571429 32.9765581,0.000282857143 32.8677209,0.000282857143 C29.8946977,0.000282857143 27.4751628,2.45171143 27.4751628,5.46602571 C27.4751628,8.47939714 29.8946977,10.9308257 32.8677209,10.9308257" id="Fill-4" fill="#BABDC2"></path>
            </g>
        </g>
    </g>
</svg>