<?xml version="1.0" encoding="UTF-8"?>
<svg width="100px" height="68px" viewBox="0 0 100 68" version="1.1" xmlns="http://www.w3.org/2000/svg" xmlns:xlink="http://www.w3.org/1999/xlink">
    <!-- Generator: Sketch 49.3 (51167) - http://www.bohemiancoding.com/sketch -->
    <title>Page 1</title>
    <desc>Created with Sketch.</desc>
    <defs>
        <polygon id="path-1" points="0 -8.1300813e-05 99.3821138 -8.1300813e-05 99.3821138 67.9234959 0 67.9234959"></polygon>
    </defs>
    <g id="02-Homepage" stroke="none" stroke-width="1" fill="none" fill-rule="evenodd">
        <g id="Homepage-Wireframe" transform="translate(-253.000000, -3348.000000)">
            <g id="Page-1" transform="translate(253.000000, 3348.000000)">
                <mask id="mask-2" fill="white">
                    <use xlink:href="#path-1"></use>
                </mask>
                <g id="Clip-2"></g>
                <path d="M1.62601626,66.2982927 L97.7560976,66.2982927 L97.7560976,8.2698374 L1.62601626,8.2698374 L1.62601626,66.2982927 Z M1.62601626,6.64300813 L97.7560976,6.64300813 L97.7560976,1.62593496 L1.62601626,1.62593496 L1.62601626,6.64300813 Z M98.5699187,-8.1300813e-05 L0.81300813,-8.1300813e-05 C0.364227642,-8.1300813e-05 0,0.364146341 0,0.812926829 L0,7.45682927 L0,67.1104878 C0,67.5600813 0.364227642,67.9234959 0.81300813,67.9234959 L98.5699187,67.9234959 C99.0186992,67.9234959 99.3829268,67.5600813 99.3829268,67.1104878 L99.3829268,7.45682927 L99.3829268,0.812926829 C99.3829268,0.364146341 99.0186992,-8.1300813e-05 98.5699187,-8.1300813e-05 Z" id="Fill-1" fill="#22334E" mask="url(#mask-2)"></path>
                <path d="M37.7297561,47.4078862 L29.2850407,47.4078862 L29.2850407,37.3469106 C29.2850407,36.8981301 28.921626,36.5339024 28.4720325,36.5339024 L23.4679675,36.5339024 C23.018374,36.5339024 22.6549593,36.8981301 22.6549593,37.3469106 L22.6549593,47.4078862 L14.2720325,47.4078862 L14.2720325,31.59 L26.0622764,23.2680488 L37.7297561,31.5030081 L37.7297561,47.4078862 Z M24.2809756,47.4078862 L27.6590244,47.4078862 L27.6590244,38.1599187 L24.2809756,38.1599187 L24.2809756,47.4078862 Z M42.3980488,34.7989431 L43.3362602,33.4704878 L26.5321951,21.6086992 C26.2508943,21.4095122 25.8744715,21.4095122 25.5931707,21.6086992 L8.78829268,33.4704878 L9.72731707,34.7989431 L12.6460163,32.7379675 L12.6460163,47.4078862 L9.25739837,47.4078862 L9.25739837,49.0339024 L13.4590244,49.0339024 L23.4679675,49.0339024 L28.4720325,49.0339024 L38.5427642,49.0339024 L42.8671545,49.0339024 L42.8671545,47.4078862 L39.3557724,47.4078862 L39.3557724,32.6509756 L42.3980488,34.7989431 Z" id="Fill-3" fill="#22334E" mask="url(#mask-2)"></path>
                <path d="M17.5154472,42.2804065 L19.101626,42.2804065 L19.101626,38.1608943 L17.5154472,38.1608943 L17.5154472,42.2804065 Z M19.9146341,36.534065 L16.702439,36.534065 C16.2536585,36.534065 15.8894309,36.8982927 15.8894309,37.3470732 L15.8894309,43.0934146 C15.8894309,43.5421951 16.2536585,43.9064228 16.702439,43.9064228 L19.9146341,43.9064228 C20.3642276,43.9064228 20.7276423,43.5421951 20.7276423,43.0934146 L20.7276423,37.3470732 C20.7276423,36.8982927 20.3642276,36.534065 19.9146341,36.534065 Z" id="Fill-4" fill="#22334E" mask="url(#mask-2)"></path>
                <path d="M32.6211382,42.2795935 L34.2073171,42.2795935 L34.2073171,38.1600813 L32.6211382,38.1600813 L32.6211382,42.2795935 Z M31.8081301,43.9064228 L35.0211382,43.9064228 C35.4699187,43.9064228 35.8341463,43.5421951 35.8341463,43.0934146 L35.8341463,37.3470732 C35.8341463,36.8982927 35.4699187,36.534065 35.0211382,36.534065 L31.8081301,36.534065 C31.3593496,36.534065 30.995122,36.8982927 30.995122,37.3470732 L30.995122,43.0934146 C30.995122,43.5421951 31.3593496,43.9064228 31.8081301,43.9064228 Z" id="Fill-5" fill="#22334E" mask="url(#mask-2)"></path>
                <path d="M27.3504065,31.0457724 C27.3504065,31.8921138 26.6617886,32.5807317 25.8154472,32.5807317 C24.9691057,32.5807317 24.2813008,31.8921138 24.2813008,31.0457724 C24.2813008,30.1994309 24.9691057,29.510813 25.8154472,29.510813 C26.6617886,29.510813 27.3504065,30.1994309 27.3504065,31.0457724 M22.6552846,31.0457724 C22.6552846,32.7888618 24.0731707,34.206748 25.8154472,34.206748 C27.5585366,34.206748 28.9764228,32.7888618 28.9764228,31.0457724 C28.9764228,29.3026829 27.5585366,27.8847967 25.8154472,27.8847967 C24.0731707,27.8847967 22.6552846,29.3026829 22.6552846,31.0457724" id="Fill-6" fill="#22334E" mask="url(#mask-2)"></path>
                <path d="M55.8786992,25.5388618 L53.263252,23.1266667 L52.161626,24.3217886 L55.3445528,27.257561 C55.4998374,27.4022764 55.6973984,27.4730081 55.8957724,27.4730081 C56.1006504,27.4730081 56.3063415,27.3957724 56.464878,27.2413008 L63.2827642,20.560813 L62.1445528,19.3998374 L55.8786992,25.5388618 Z" id="Fill-7" fill="#22334E" mask="url(#mask-2)"></path>
                <polygon id="Fill-8" fill="#22334E" mask="url(#mask-2)" points="69.8284553 24.9470732 87.3081301 24.9470732 87.3081301 23.3210569 69.8284553 23.3210569"></polygon>
                <path d="M55.8786992,38.8474797 L53.263252,36.4360976 L52.161626,37.6304065 L55.3445528,40.5661789 C55.4998374,40.7108943 55.6973984,40.781626 55.8957724,40.781626 C56.1006504,40.781626 56.3063415,40.7043902 56.464878,40.5499187 L63.2827642,33.8694309 L62.1445528,32.7084553 L55.8786992,38.8474797 Z" id="Fill-9" fill="#22334E" mask="url(#mask-2)"></path>
                <polygon id="Fill-10" fill="#22334E" mask="url(#mask-2)" points="69.8284553 38.2560163 87.3081301 38.2560163 87.3081301 36.63 69.8284553 36.63"></polygon>
                <polygon id="Fill-11" fill="#22334E" mask="url(#mask-2)" points="69.8284553 51.4747154 87.3081301 51.4747154 87.3081301 49.8486992 69.8284553 49.8486992"></polygon>
                <polygon id="Fill-12" fill="#22334E" mask="url(#mask-2)" points="61.125935 46.0002439 57.6137398 49.512439 54.1007317 46.0002439 52.9511382 47.1498374 56.4641463 50.6620325 52.9511382 54.1742276 54.1007317 55.3238211 57.6137398 51.811626 61.125935 55.3238211 62.2755285 54.1742276 58.7633333 50.6620325 62.2755285 47.1498374"></polygon>
                <polygon id="Fill-13" fill="#22334E" mask="url(#mask-2)" points="13.4593496 54.1804065 26.0626016 54.1804065 26.0626016 52.5543902 13.4593496 52.5543902"></polygon>
            </g>
        </g>
    </g>
</svg>