<svg xmlns="http://www.w3.org/2000/svg" xmlns:xlink="http://www.w3.org/1999/xlink" width="94" height="91" version="1.1" viewBox="0 0 94 91"><title>Page 1</title><desc>Created with Sketch.</desc><defs><polygon id="path-1" points="0 .322 79.552 .322 79.552 12.002 0 12.002"/><polygon id="path-3" points="0 .139 93.859 .139 93.859 61.704 0 61.704"/><polygon id="path-5" points="0 90.653 93.859 90.653 93.859 .791 0 .791"/></defs><g id="02-Homepage" fill="none" fill-rule="evenodd" stroke="none" stroke-width="1"><g id="Homepage-Wireframe" transform="translate(-638.000000, -3336.000000)"><g id="Page-1" transform="translate(638.000000, 3336.000000)"><g id="Group-3" transform="translate(0.000000, 0.469113)"><mask id="mask-2" fill="#fff"><use xlink:href="#path-1"/></mask><path id="Fill-1" fill="#22334E" d="M1.58217026,4.73416985 L27.9830543,4.73416985 C27.8675559,5.19220814 27.7995225,5.66844139 27.7995225,6.16207851 C27.7995225,6.65492455 27.8675559,7.13194888 27.9830543,7.58919608 L1.58217026,7.58919608 L1.58217026,4.73416985 Z M33.639313,1.90366726 C35.9872536,1.90366726 37.8969331,3.81413784 37.8969331,6.16207851 C37.8969331,8.50922809 35.9872536,10.4196987 33.639313,10.4196987 C31.2921634,10.4196987 29.3816928,8.50922809 29.3816928,6.16207851 C29.3816928,3.81413784 31.2921634,1.90366726 33.639313,1.90366726 Z M39.2955716,4.73416985 L77.9701415,4.73416985 L77.9701415,7.58919608 L39.2955716,7.58919608 C39.4110701,7.13194888 39.4791034,6.65492455 39.4791034,6.16207851 C39.4791034,5.66844139 39.4110701,5.19220814 39.2955716,4.73416985 Z M0.79108513,9.17136634 L28.6436104,9.17136634 C29.6680656,10.8642885 31.520787,12.0018689 33.639313,12.0018689 C35.7578389,12.0018689 37.6105603,10.8642885 38.6350156,9.17136634 L78.7612266,9.17136634 C79.1979056,9.17136634 79.5523117,8.81775129 79.5523117,8.38028121 L79.5523117,3.94308472 C79.5523117,3.50640573 79.1979056,3.15199959 78.7612266,3.15199959 L38.6350156,3.15199959 C37.6105603,1.45907741 35.7578389,0.321496997 33.639313,0.321496997 C31.520787,0.321496997 29.6680656,1.45907741 28.6436104,3.15199959 L0.79108513,3.15199959 C0.353615053,3.15199959 0,3.50640573 0,3.94308472 L0,8.38028121 C0,8.81775129 0.353615053,9.17136634 0.79108513,9.17136634 Z" mask="url(#mask-2)"/></g><g id="Group-6" transform="translate(0.000000, 28.948178)"><mask id="mask-4" fill="#fff"><use xlink:href="#path-3"/></mask><path id="Fill-4" fill="#22334E" d="M92.2773116,42.5618039 C92.2773116,52.2446859 84.3996859,60.1223116 74.7168039,60.1223116 L70.7423922,60.1223116 C59.227357,60.1223116 51.7856192,51.121345 51.7856192,37.191127 L51.7856192,29.1932563 C51.7856192,27.1024183 53.4848701,25.4023764 55.5741259,25.3968388 L55.5741259,42.7239764 L57.1562962,42.7239764 L57.1562962,9.90897412 C57.1562962,7.81497178 58.8595024,6.1117655 60.9527137,6.1117655 C63.046716,6.1117655 64.7499223,7.81497178 64.7499223,9.90897412 L64.7499223,24.1287293 L64.7151146,24.1287293 L64.7151146,35.5163998 L66.2972848,35.5163998 L66.2972848,24.8478257 C66.3107333,24.7908676 66.3320926,24.7370738 66.3320926,24.6761602 C66.3320926,22.5821579 68.0352989,20.8789516 70.1293012,20.8789516 C72.2225125,20.8789516 73.9257187,22.5821579 73.9257187,24.6761602 L73.9257187,35.5163998 L75.507889,35.5163998 L75.507889,24.6761602 C75.507889,22.5821579 77.2110953,20.8789516 79.3050976,20.8789516 C81.3983089,20.8789516 83.1015152,22.5821579 83.1015152,24.6761602 L83.1015152,35.5163998 L84.6836854,35.5163998 L84.6836854,24.6761602 C84.6836854,22.5821579 86.3876828,20.8789516 88.480894,20.8789516 C90.5748964,20.8789516 92.2773116,22.5821579 92.2773116,24.6761602 L92.2773116,42.5618039 Z M60.8949645,1.72124303 C63.2429052,1.72124303 65.1533757,3.63092253 65.1533757,5.97886319 C65.1533757,6.15211084 65.1233145,6.31982088 65.1019552,6.48990419 C64.114681,5.29378347 62.6219033,4.52959524 60.9527137,4.52959524 C59.2170729,4.52959524 57.675248,5.36023462 56.6911381,6.64021036 C56.6571214,6.42266195 56.6373443,6.2019492 56.6373443,5.97886319 C56.6373443,3.63092253 58.5470238,1.72124303 60.8949645,1.72124303 Z M50.203449,33.5877342 L19.7395517,33.5877342 C19.8550501,33.130487 19.9230834,32.6534627 19.9230834,32.1606166 C19.9230834,31.6669795 19.8550501,31.1899552 19.7395517,30.7319169 L50.203449,30.7319169 L50.203449,33.5877342 Z M14.083293,36.4182368 C11.7353524,36.4182368 9.82488177,34.5077662 9.82488177,32.1606166 C9.82488177,29.812676 11.7353524,27.9022054 14.083293,27.9022054 C16.4312337,27.9022054 18.3409132,29.812676 18.3409132,32.1606166 C18.3409132,34.5077662 16.4312337,36.4182368 14.083293,36.4182368 Z M8.42703434,33.5877342 L1.5825658,33.5877342 L1.5825658,30.7319169 L8.42703434,30.7319169 C8.31074483,31.1899552 8.24271151,31.6669795 8.24271151,32.1606166 C8.24271151,32.6534627 8.31074483,33.130487 8.42703434,33.5877342 Z M1.5825658,7.40677185 L1.5825658,4.55095453 L55.2394969,4.55095453 C55.1232074,5.00899282 55.0551741,5.48522607 55.0551741,5.97886319 C55.0551741,6.46617163 55.128745,6.94240488 55.2458256,7.40677185 L1.5825658,7.40677185 Z M77.9697459,4.55095453 L77.9697459,7.40677185 L66.5520142,7.40677185 C66.6698859,6.94240488 66.735546,6.46538055 66.735546,5.97886319 C66.735546,5.48522607 66.6675127,5.00899282 66.5512232,4.55095453 L77.9697459,4.55095453 Z M88.480894,19.2967814 C86.5419444,19.2967814 84.8395292,20.3275653 83.8926003,21.8701813 C82.9464625,20.3275653 81.2440473,19.2967814 79.3050976,19.2967814 C77.3653569,19.2967814 75.6637328,20.3275653 74.7168039,21.8701813 C73.769875,20.3275653 72.0674598,19.2967814 70.1293012,19.2967814 C68.6491809,19.2967814 67.3059184,19.8980061 66.3320926,20.8694586 L66.3320926,9.90897412 C66.3320926,9.59412224 66.2996581,9.28797229 66.2474465,8.98894211 L78.7608311,8.98894211 C79.1983011,8.98894211 79.5519162,8.63453597 79.5519162,8.19785698 L79.5519162,3.7598694 C79.5519162,3.32319041 79.1983011,2.96878427 78.7608311,2.96878427 L65.8914582,2.96878427 C64.8670029,1.27665318 63.0142815,0.139072766 60.8949645,0.139072766 C58.7764385,0.139072766 56.9245082,1.27665318 55.900053,2.96878427 L0.791480672,2.96878427 C0.354010596,2.96878427 0.000395542565,3.32319041 0.000395542565,3.7598694 L0.000395542565,8.19785698 C0.000395542565,8.63453597 0.354010596,8.98894211 0.791480672,8.98894211 L55.658772,8.98894211 C55.6065604,9.28797229 55.5741259,9.59412224 55.5741259,9.90897412 L55.5741259,23.8138774 C52.6265427,23.819415 50.2295548,26.20691 50.2058222,29.1497466 L19.0782045,29.1497466 C18.0545404,27.4576155 16.201819,26.3200351 14.083293,26.3200351 C11.9655581,26.3200351 10.1120457,27.4576155 9.08838151,29.1497466 L0.791480672,29.1497466 C0.354010596,29.1497466 0.000395542565,29.5041528 0.000395542565,29.9408318 L0.000395542565,34.3788193 C0.000395542565,34.8154983 0.354010596,35.1699045 0.791480672,35.1699045 L9.08759043,35.1699045 C10.1120457,36.8628267 11.964767,38.0004071 14.083293,38.0004071 C16.201819,38.0004071 18.0545404,36.8628267 19.0789956,35.1699045 L50.203449,35.1699045 L50.203449,37.191127 C50.203449,52.0825135 58.2661886,61.7044819 70.7423922,61.7044819 L74.7168039,61.7044819 C85.2722528,61.7044819 93.8594818,53.1172528 93.8594818,42.5618039 L93.8594818,24.6761602 C93.8594818,21.709591 91.4466722,19.2967814 88.480894,19.2967814 Z" mask="url(#mask-4)"/></g><polygon id="Fill-7" fill="#22334E" points="55.435 28.038 56.553 26.919 52.316 22.682 51.198 23.801"/><polygon id="Fill-9" fill="#22334E" points="66.417 28.038 70.301 24.154 69.183 23.035 65.299 26.919"/><mask id="mask-6" fill="#fff"><use xlink:href="#path-5"/></mask><polygon id="Fill-11" fill="#22334E" points="60.104 25.367 61.686 25.367 61.686 19.478 60.104 19.478" mask="url(#mask-6)"/></g></g></g></svg>