<?xml version="1.0" encoding="UTF-8"?>
<svg width="155px" height="32px" viewBox="0 0 155 32" version="1.1" xmlns="http://www.w3.org/2000/svg" xmlns:xlink="http://www.w3.org/1999/xlink">
    <!-- Generator: Sketch 49.3 (51167) - http://www.bohemiancoding.com/sketch -->
    <title>logo-bloomberg</title>
    <desc>Created with Sketch.</desc>
    <defs>
        <polygon id="path-1" points="0 32 155 32 155 0 0 0"></polygon>
    </defs>
    <g id="02-Homepage" stroke="none" stroke-width="1" fill="none" fill-rule="evenodd">
        <g id="Homepage-Wireframe" transform="translate(-619.000000, -4916.000000)">
            <g id="Group-8" transform="translate(619.000000, 4824.000000)">
                <g id="logo-bloomberg" transform="translate(0.000000, 92.000000)">
                    <path d="M4.09595436,14.424013 L4.09595436,21.3407247 L7.86514523,21.3407247 C9.97717842,21.3407247 12.909751,20.9653867 12.909751,17.8166577 C12.909751,15.3066522 11.3438797,14.424013 8.02852697,14.424013 L4.09595436,14.424013 Z M0,25 L0,1 L8.97147303,1 C12.4502075,1 16.0306017,2.65981612 16.0306017,7.03407247 C16.0306017,9.74689021 14.3983402,11.5440779 12.031639,12.2833964 L12.031639,12.3547864 C14.9242739,12.6976744 17,15.0676041 17,18.1541374 C17,23.3775014 12.6441909,25 8.28838174,25 L0,25 Z M4.09595436,4.65927528 L4.09595436,10.7647377 L7.83454357,10.7647377 C10.5684647,10.7647377 11.9304979,9.54407788 11.9304979,7.74634938 C11.9304979,5.6776636 10.5684647,4.65927528 7.4776971,4.65927528 L4.09595436,4.65927528 Z" id="Fill-1" fill="#87909E"></path>
                    <mask id="mask-2" fill="white">
                        <use xlink:href="#path-1"></use>
                    </mask>
                    <g id="Clip-4"></g>
                    <polygon id="Fill-3" fill="#87909E" mask="url(#mask-2)" points="19 24 23 24 23 0 19 0"></polygon>
                    <path d="M26,16.5024219 C26,21.5964479 29.7747189,25 34.5,25 C39.2195673,25 43,21.5969861 43,16.5024219 C43,11.4078577 39.2200868,8 34.5,8 C29.7747189,7.9994618 26,11.4083959 26,16.5024219 M29.9076937,16.5024219 C29.9076937,13.972362 31.6342887,11.6468167 34.5,11.6468167 C37.3657113,11.6468167 39.087112,13.9729002 39.087112,16.5024219 C39.087112,19.0319435 37.3657113,21.3585652 34.5,21.3585652 C31.6337692,21.3585652 29.9076937,19.0324817 29.9076937,16.5024219" id="Fill-5" fill="#87909E" mask="url(#mask-2)"></path>
                    <path d="M44,16.5024219 C44,21.5964479 47.7752383,25 52.5,25 C57.2195673,25 61,21.5969861 61,16.5024219 C61,11.4078577 57.2200868,8 52.5,8 C47.7747189,7.9994618 44,11.4083959 44,16.5024219 M47.9076937,16.5024219 C47.9076937,13.972362 49.6342887,11.6468167 52.5,11.6468167 C55.3657113,11.6468167 57.087112,13.9729002 57.087112,16.5024219 C57.087112,19.0319435 55.3657113,21.3585652 52.5,21.3585652 C49.6342887,21.3585652 47.9076937,19.0324817 47.9076937,16.5024219" id="Fill-6" fill="#87909E" mask="url(#mask-2)"></path>
                    <path d="M64,8.39267304 L67.6792829,8.39267304 L67.6792829,10.8337818 L67.7400124,10.8337818 C68.4183304,9.36994651 69.9010572,8 72.4820621,8 C74.8710999,8 76.5210902,8.94096288 77.3254991,10.8949911 C78.4541419,8.91554547 80.0989857,8 82.4170008,8 C86.5466086,8 88,10.9634625 88,14.702934 L88,24 L84.1282354,24 L84.1282354,15.1568163 C84.1282354,13.2079754 83.5513049,11.5169395 81.2585079,11.5169395 C78.83962,11.5169395 77.933309,13.5316583 77.933309,15.5443022 L77.933309,23.9994813 L74.066691,23.9994813 L74.066691,14.7024153 C74.066691,12.7789917 73.2921322,11.5169395 71.41981,11.5169395 C68.8738018,11.5169395 67.8717646,13.3967904 67.8717646,15.4804993 L67.8717646,23.9994813 L64,23.9994813 L64,8.39267304 Z" id="Fill-7" fill="#87909E" mask="url(#mask-2)"></path>
                    <path d="M91.0005235,23.6116959 L94.7427014,23.6116959 L94.7427014,21.2673164 L94.8050012,21.2673164 C95.9578098,23.1511371 98.0220806,24 100.225086,24 C105.075573,24 108,20.4168941 108,15.7925926 C108,11.1662118 104.880297,7.58050682 100.385809,7.58050682 C97.4352057,7.58050682 95.8546748,8.94554906 95.0364006,9.96283301 L94.9379773,9.96283301 L94.9379773,0 L91,0 L91,23.6116959 L91.0005235,23.6116959 Z M104.061499,15.7931124 C104.061499,18.2393762 102.327051,20.4834308 99.4329884,20.4834308 C96.5446847,20.4834308 94.8050012,18.2393762 94.8050012,15.7931124 C94.8050012,13.3494477 96.5446847,11.0975958 99.4329884,11.0975958 C102.327051,11.0975958 104.061499,13.3494477 104.061499,15.7931124 Z" id="Fill-8" fill="#87909E" mask="url(#mask-2)"></path>
                    <path d="M126,17.9184158 L126,16.8075791 C126,11.1705132 123.004924,8 118.593448,8 C113.811725,8 110,11.4083959 110,16.5024219 C110,21.5964479 113.811725,25 118.593448,25 C121.088033,25 123.432416,24.0904486 125.271056,21.7659797 L122.44141,19.5776744 C121.45513,20.8198309 120.16845,21.7659797 118.195891,21.7659797 C115.990678,21.7659797 114.208757,20.3133884 113.950896,17.9184158 L126,17.9184158 Z M113.950896,14.8829898 C114.24552,12.5515244 115.69658,11.035426 118.030985,11.035426 C120.499311,11.035426 122.012867,12.520309 122.049104,14.8829898 L113.950896,14.8829898 Z" id="Fill-9" fill="#87909E" mask="url(#mask-2)"></path>
                    <path d="M127.00052,8.39267304 L130.909587,8.39267304 L130.909587,10.8643864 L130.976098,10.8643864 C131.82411,9.07634949 133.546635,8 135.600156,8 C136.090673,8 136.545336,8.09959475 137,8.23186902 L137,12.0019452 C136.351,11.8411412 135.727981,11.7109418 135.109119,11.7109418 C131.430242,11.7109418 130.909067,14.8020101 130.909067,15.6490841 L130.909067,24 L127,24 L127,8.39267304 L127.00052,8.39267304 Z" id="Fill-10" fill="#87909E" mask="url(#mask-2)"></path>
                    <path d="M151.257592,8.39590325 L151.257592,10.756679 L151.195812,10.756679 C150.042932,8.85351929 147.973298,8 145.774346,8 C140.919895,8 138,11.6075834 138,16.2648071 C138,20.7185879 141.119895,24.3266943 145.841361,24.3266943 C147.813613,24.3266943 149.84712,23.575681 151.001047,22.0354761 L151.056545,22.0354761 L151.056545,23.1850076 C151.056545,26.2967967 149.882723,28.4619743 146.073298,28.4619743 C143.874346,28.4619743 142.231937,27.6387884 140.656545,26.1885378 L138.297906,29.4075398 C140.52199,31.3823491 143.18377,32 146.108377,32 C152.246597,32 155,28.3898017 155,22.7216387 L155,8.39590325 L151.257592,8.39590325 Z M146.598429,11.5458706 C149.450785,11.5458706 151.257592,13.4411854 151.257592,16.1691 C151.257592,18.7871868 149.485864,20.7876226 146.566492,20.7876226 C143.910471,20.7876226 141.937696,18.722859 141.937696,16.2308128 C141.937696,13.4411854 143.837696,11.5458706 146.598429,11.5458706 Z" id="Fill-11" fill="#87909E" mask="url(#mask-2)"></path>
                </g>
            </g>
        </g>
    </g>
</svg>