<?xml version="1.0" encoding="UTF-8"?>
<svg width="103px" height="86px" viewBox="0 0 103 86" version="1.1" xmlns="http://www.w3.org/2000/svg" xmlns:xlink="http://www.w3.org/1999/xlink">
    <!-- Generator: Sketch 49.3 (51167) - http://www.bohemiancoding.com/sketch -->
    <title>Page 1</title>
    <desc>Created with Sketch.</desc>
    <defs>
        <polygon id="path-1" points="0 0.319183765 102.156174 0.319183765 102.156174 65.5287255 0 65.5287255"></polygon>
        <polygon id="path-3" points="0.433255038 0.786780288 20.3429189 0.786780288 20.3429189 14.4830868 0.433255038 14.4830868"></polygon>
    </defs>
    <g id="02-Homepage" stroke="none" stroke-width="1" fill="none" fill-rule="evenodd">
        <g id="Homepage-Wireframe" transform="translate(-1001.000000, -3338.000000)">
            <g id="Page-1" transform="translate(1001.000000, 3338.000000)">
                <g id="Group-3" transform="translate(0.000000, 20.000000)">
                    <mask id="mask-2" fill="white">
                        <use xlink:href="#path-1"></use>
                    </mask>
                    <g id="Clip-2"></g>
                    <path d="M34.7994784,63.2916189 C33.3943629,64.2728933 31.4528685,63.9900408 30.3792878,62.6479427 C29.8100022,61.9362492 29.5615567,61.0445586 29.6800208,60.1371079 C29.8001302,59.2296571 30.2698731,58.4341862 31.0045149,57.8966834 L35.7726936,54.4020856 L40.6601592,58.8970358 L34.7994784,63.2916189 Z M28.0692385,57.9953914 C26.6608323,59.0289231 24.6806725,58.7817381 23.5634905,57.4346632 C22.9909142,56.7428772 22.7202567,55.8686056 22.8033461,54.9719382 C22.8872581,54.0744412 23.312577,53.2648691 24.0036175,52.6933576 L29.0778284,48.4895548 L34.5123676,53.2748228 L28.0692385,57.9953914 Z M20.5064594,49.0419882 C19.3284001,47.6351908 19.4633175,45.5614917 20.8133143,44.3214196 L22.5516099,42.7246713 C22.6289406,42.7960065 22.6988674,42.8739776 22.7786661,42.9436539 L27.8175023,47.379711 L25.2129382,49.4973725 C23.7930147,50.6503492 21.6828734,50.4462972 20.5064594,49.0419882 Z M101.187072,15.6288894 L78.3819158,32.387696 C77.3354832,33.0122942 76.6172948,34.0972536 76.4453573,35.3091233 L74.5696762,41.7931657 L55.6623172,24.0970471 C53.5316093,22.410715 50.5329876,22.2191052 48.2081302,23.6209258 L34.9985639,31.5814418 C32.907344,32.8430804 30.1555224,32.1720313 28.866403,30.0858901 C27.5624755,27.9773528 28.1539732,25.2566596 30.2122864,23.8905066 L50.0138846,10.7515492 C51.4494388,9.79847707 53.3078439,9.66576033 54.8610394,10.4031677 L62.3168718,13.9408984 C63.7236326,14.6102884 65.3451095,14.4991382 66.708269,13.6033002 L82.0205726,1.62976159 L81.0119827,0.319183765 L65.7564431,12.2520778 C64.9296626,12.7928986 63.9046194,12.8609159 63.0177842,12.4403697 L55.5611292,8.90263906 C53.8170748,8.07481838 51.792491,8.08062474 50.0558406,8.85701768 L47.4570351,6.31963947 C45.9021942,4.80418017 43.6579582,4.27414268 41.602113,4.93938535 L33.3532296,7.60284447 C32.5149317,7.87491379 31.5968352,7.65759012 30.9642042,7.03962779 L24.6724458,0.894013154 L23.5272932,2.08514591 L29.8190515,8.23159003 C30.8885188,9.27507542 32.432665,9.64170542 33.8550565,9.18300318 L42.1031173,6.51954406 C43.5822729,6.04342275 45.1947005,6.42166546 46.3127051,7.51160171 L48.5750398,9.7196765 L29.3073525,22.5044462 C26.4971216,24.3691164 25.6900851,28.0851852 27.4703368,30.9634795 C29.2300218,33.8110831 32.9854974,34.7259991 35.8426203,33.0056584 L49.051364,25.0451423 C50.7995317,23.9925326 53.0470584,24.1368621 54.5944953,25.3578561 L74.4257095,43.9224399 C74.4290002,43.9257578 74.4331135,43.9265873 74.4355815,43.9290757 L74.4347588,43.9307347 C75.1126366,44.5478675 75.5075168,45.3939368 75.5470048,46.3138297 C75.5864928,47.2337226 75.2656526,48.1113121 74.6437163,48.785679 C73.3866809,50.1485141 71.3193183,50.2513695 69.9281882,49.0187628 L63.0811295,43.0100123 L63.0441095,43.0531452 L57.7288571,38.3035448 L56.6380005,39.5461053 L66.5503169,48.4032889 C67.2281946,49.0204218 67.6230749,49.866491 67.6625629,50.7863839 C67.7020509,51.7062768 67.3812107,52.5838663 66.7592744,53.2582332 C65.502239,54.6218977 63.4324084,54.7239237 62.0585543,53.5045887 L60.1302225,51.7319907 C60.0150491,51.6034213 59.8924717,51.4789994 59.763313,51.3612133 L58.4445775,50.1816932 L55.1259382,47.1300377 L55.0839822,47.175659 L49.464343,42.1490124 L48.371841,43.389914 L57.3553662,51.4250832 L58.8394577,52.7895772 C59.4029847,53.3868026 59.7427463,54.1490944 59.778121,54.980233 C59.817609,55.9001259 59.4967688,56.7777153 58.8748324,57.4520823 C57.6169744,58.8149173 55.5479665,58.9177728 54.1716444,57.6959493 L51.3943201,55.16023 C51.2051066,54.9113861 50.9953265,54.6774729 50.759221,54.4626377 L46.2041131,50.3699851 L46.1786104,50.3990169 L40.7522979,45.444535 L39.6491012,46.6746533 L50.1545607,56.2659264 C50.5255836,56.7943049 50.7460584,57.4172441 50.774029,58.0808278 C50.8135171,59.0007208 50.4926769,59.8783102 49.8699179,60.5526772 C48.6128825,61.9155122 46.5446972,62.0183677 45.1691978,60.7982031 L36.3855807,52.7207304 L36.3740633,52.7331726 C36.36995,52.7290252 36.3658367,52.7248778 36.3609006,52.7215599 L36.372418,52.7091177 L23.861296,41.6936281 C21.7363468,39.8231515 20.401158,37.2360045 20.1000618,34.4099674 L19.6048162,29.7681994 C19.4518001,28.3340291 18.7039957,27.0201333 17.5473257,26.1607924 L0.96729203,14.0022799 L-0.000164533429,15.3435484 L16.5757558,27.4995725 C17.3572896,28.0810378 17.8648752,28.9727284 17.9693539,29.9465375 L18.4645996,34.587476 C18.7393704,37.1688167 19.7767537,39.5676718 21.4138613,41.5252437 L19.7043589,43.0954487 C17.6986964,44.9385525 17.4987883,48.0208988 19.2502467,50.112017 C20.0934805,51.1206642 21.2616679,51.7120832 22.4808606,51.862219 C21.7305881,52.6684732 21.2690719,53.697028 21.1654158,54.8168255 C21.0403704,56.158094 21.4451226,57.4661834 22.3023418,58.4988856 C23.7247333,60.2150789 26.0841427,60.7351627 28.0527851,59.8982177 C28.0511398,59.9048536 28.0503171,59.9114894 28.0494945,59.9189547 C27.870153,61.2809603 28.2428213,62.6197404 29.0983951,63.6897691 C30.060093,64.8933441 31.4874205,65.5287255 32.9353147,65.5287255 C33.9126432,65.5287255 34.8990211,65.2392371 35.7587083,64.6395233 L41.8982732,60.0350819 L44.0717598,62.0332983 C45.0334577,62.8876623 46.2180984,63.309038 47.3969804,63.309038 C48.7412185,63.309038 50.079698,62.7615814 51.0751252,61.6832579 C51.9265857,60.7600471 52.393038,59.5796975 52.4160727,58.3313307 L53.0758517,58.9335329 C54.0383723,59.7870675 55.2213676,60.2092726 56.4010723,60.2092726 C57.7461331,60.2092726 59.0846126,59.6609865 60.0792171,58.582663 C60.9660523,57.6229551 61.4349726,56.3837125 61.4209872,55.078941 C62.2897238,55.692756 63.285151,56.0154235 64.2855143,56.0154235 C65.630575,56.0154235 66.9690545,55.4671375 67.9636591,54.388814 C68.8891596,53.3868026 69.3654839,52.0820311 69.3062518,50.7142192 C69.3046065,50.6760631 69.2988478,50.637907 69.2963798,50.599751 C70.1667617,51.2177133 71.1663023,51.5420399 72.1699562,51.5420399 C73.515017,51.5420399 74.8534964,50.9945833 75.848101,49.9162598 C76.7727789,48.9142484 77.2499258,47.6094769 77.1906938,46.241665 C77.1405111,45.0546796 76.6888668,43.9498127 75.9114464,43.0788591 L78.0421543,35.7139094 C78.0544943,35.6716059 78.0635436,35.628473 78.0693023,35.5845106 C78.161441,34.8421263 78.5999226,34.1752247 79.2432483,33.8011294 C79.268751,33.7870282 79.293431,33.7704386 79.3164657,33.7530195 L102.156174,16.9693285 L101.187072,15.6288894 Z" id="Fill-1" fill="#22334E" mask="url(#mask-2)"></path>
                </g>
                <g id="Group-6" transform="translate(41.000000, 0.000000)">
                    <mask id="mask-4" fill="white">
                        <use xlink:href="#path-3"></use>
                    </mask>
                    <g id="Clip-5"></g>
                    <path d="M6.9643035,14.4830868 C7.17069312,14.4830868 7.37708273,14.4061714 7.53534196,14.2539431 L20.3429189,1.93145748 L19.200842,0.786539928 L6.94717235,12.5770274 L1.53943812,7.67687647 L0.433255038,8.85464329 L6.41121196,14.2707683 C6.56783965,14.412581 6.76607158,14.4830868 6.9643035,14.4830868" id="Fill-4" fill="#22334E" mask="url(#mask-4)"></path>
                </g>
            </g>
        </g>
    </g>
</svg>