<svg xmlns="http://www.w3.org/2000/svg" xmlns:xlink="http://www.w3.org/1999/xlink" width="57" height="45" version="1.1" viewBox="0 0 57 45"><title>logo-cnbc</title><desc>Created with Sketch.</desc><g id="02-Homepage" fill="none" fill-rule="evenodd" stroke="none" stroke-width="1"><g id="Homepage-Wireframe" fill="#87909E" transform="translate(-615.000000, -5156.000000)"><g id="Group-10" transform="translate(614.000000, 5089.000000)"><g id="logo-cnbc" transform="translate(1.000000, 67.000000)"><path id="Fill-1" d="M7.39225847,8.93672093 C5.13153985,10.9832594 4.30872642,15.6204654 8.38412324,18.331261 L24.6426807,29.4858241 L16.7594306,11.4251826 C15.1075067,7.16329643 10.58833,6.23391769 7.39225847,8.93672093"/><path id="Fill-3" d="M21.3878207,0.155658022 C18.7450008,0.2095058 14.7764923,3.35665412 16.5425702,8.16242702 L24.696028,27.3914927 L27.5611011,7.16620276 C28.2240666,2.14067926 24.4208957,-0.179215416 21.3878207,0.155658022"/><path id="Fill-5" d="M28.8333941,6.39479096 L30.3752005,6.39479096 C30.3752005,6.39479096 31.1984983,6.39479096 31.3105534,6.78318925 C30.7037769,7.27863724 29.0524989,7.34071961 29.2717651,9.9871724 L31.8634013,27.3887236 L39.9612352,8.10920087 C41.6175186,3.80444642 38.1408251,0.209320118 35.0568894,0.0994448169 C34.9128648,0.0891112103 34.768275,0.080715155 34.6185185,0.080715155 C31.8504843,0.0806344237 28.67839,2.09237772 28.8333941,6.39479096"/><path id="Fill-8" d="M39.6352261,11.5889864 L31.9760861,29.4329451 L48.2298804,18.2195289 C51.9765394,15.5620159 51.3723463,11.313289 49.2749471,9.2131449 C48.3957832,8.22467085 46.7813994,7.4611142 45.0712683,7.4611142 C43.0508867,7.46071054 40.8885795,8.53233784 39.6352261,11.5889864"/><path id="Fill-10" d="M46.4100354,20.7584556 L31.1457647,31.4203964 L49.9404152,31.4203964 C53.7963844,31.4203964 56.2744317,27.4447027 55.1728531,23.796213 C54.434969,21.5030404 52.252156,19.7028939 49.7185656,19.7003105 C48.6521051,19.7007141 47.5212211,20.021944 46.4100354,20.7584556"/><path id="Fill-12" d="M6.95426695,31.4203883 L25.4716862,31.4203883 L10.2035404,20.7584476 C6.67622834,18.4921585 2.71006098,19.8182508 1.27821062,23.5791185 C0.0644962366,27.8842766 3.09490709,31.4203883 6.95426695,31.4203883"/><path id="Fill-14" d="M1.61462602e-05,39.1366942 C1.61462602e-05,40.9525026 1.48442258,44.2577228 7.15240578,44.2577228 C12.3781429,44.2577228 14.0286136,41.859761 14.0286136,40.7602814 L9.98292593,40.7602814 C9.98292593,40.7602814 9.79078543,42.2128797 7.50859228,42.2128797 C5.22494596,42.2128797 4.60735151,40.3068136 4.60735151,39.2045892 C4.60735151,38.1065628 5.22494596,36.3032677 7.50859228,36.3032677 C9.79078543,36.3032677 9.98292593,37.5679235 9.98292593,37.5679235 L14.0286136,37.5679235 C14.0286136,36.467233 12.8176441,34.1030975 7.15240578,34.1030975 C1.48442258,34.1030975 1.61462602e-05,37.6232245 1.61462602e-05,39.1366942"/><path id="Fill-17" d="M42.4288117,39.1366942 C42.4288117,40.9525026 43.914752,44.2577228 49.5812013,44.2577228 C54.806454,44.2577228 56.4575706,41.859761 56.4575706,40.7602814 L52.4147085,40.7602814 C52.4147085,40.7602814 52.22168,42.2128797 49.9389217,42.2128797 C47.6550332,42.2128797 47.0367929,40.3068136 47.0367929,39.2045892 C47.0367929,38.1065628 47.6550332,36.3032677 49.9389217,36.3032677 C52.22168,36.3032677 52.4147085,37.5679235 52.4147085,37.5679235 L56.4575706,37.5679235 C56.4575706,36.467233 55.2478928,34.1030975 49.5812013,34.1030975 C43.9148327,34.1030975 42.4288117,37.6232245 42.4288117,39.1366942"/><polygon id="Fill-20" points="25.085 34.273 25.085 40.42 20.377 34.273 15.081 34.273 15.081 44.009 18.712 44.009 18.712 37.791 23.338 44.009 28.717 44.009 28.717 34.273"/><path id="Fill-22" d="M39.6925453,38.8327731 C40.3535732,38.8327731 41.7356931,38.0654221 41.7356931,36.5788359 C41.7356931,34.4619805 37.7937451,34.2727463 37.1890677,34.2727463 L29.9263183,34.2727463 L29.9263183,44.0089412 L37.1890677,44.0089412 C40.6822303,44.0089412 42.0854211,42.9054251 42.0854211,41.0626524 C42.0854211,39.2199604 39.6925453,38.8327731 39.6925453,38.8327731 Z M33.7233536,36.1663797 L36.6385609,36.1663797 L36.6385609,36.1704163 C37.132475,36.1704163 37.532983,36.4954405 37.532983,36.8953026 C37.532983,37.2968601 37.132475,37.618978 36.6385609,37.618978 L36.6385609,37.6233375 L33.7233536,37.6233375 L33.7233536,36.1663797 Z M36.7209876,41.6829917 L36.7209876,41.695828 L33.6955821,41.695828 L33.6955821,39.9080333 L36.7209876,39.9080333 L36.7209876,39.9139267 C37.3669995,39.9139267 37.8891695,40.3109632 37.8891695,40.7997913 C37.8891695,41.2874891 37.3669995,41.6829917 36.7209876,41.6829917 Z"/></g></g></g></g></svg>