<svg xmlns="http://www.w3.org/2000/svg" xmlns:xlink="http://www.w3.org/1999/xlink" width="25" height="36" version="1.1" viewBox="0 0 25 36"><defs><polygon id="path-1" points="0 .851 24.566 .851 24.566 35.053 0 35.053"/></defs><g id="02-Homepage" fill="none" fill-rule="evenodd" stroke="none" stroke-width="1"><g id="Homepage-Wireframe" transform="translate(-580.000000, -3911.000000)"><g id="Page-1" transform="translate(580.000000, 3911.000000)"><g id="Group-3" transform="translate(0.000000, 0.096726)"><mask id="mask-2" fill="#fff"><use xlink:href="#path-1"/></mask><path id="Fill-1" fill="#21324F" d="M21.9226923,29.2671474 L18.9688462,33.4422 L5.59576923,33.4422 L2.63038462,29.2197789 C1.45923077,27.5514632 1.31019231,25.3933579 2.24288462,23.5867263 L6.70346154,14.9391474 L17.6996154,14.9391474 L22.2871154,23.5554632 C23.2611538,25.3838842 23.1207692,27.5732526 21.9226923,29.2671474 Z M11.0448077,5.28830526 L11.1198077,8.83998947 L12.7534615,8.80588421 L12.6611538,4.45177895 C12.6515385,4.00841053 12.3034615,3.62851579 11.8294231,3.66356842 L10.6217308,3.68630526 L10.6217308,2.46135789 L18.3342308,2.46135789 L16.1351923,10.6579895 L8.14192308,10.7754632 L6.71115385,5.36883158 L11.0448077,5.28830526 Z M16.2775,12.2666211 L16.8428846,13.3286211 L7.53326923,13.3286211 L8.01884615,12.3878842 L16.2775,12.2666211 Z M23.7351923,22.8070421 L17.6390385,11.3571474 L20.1851923,1.86167368 C20.2505769,1.62009474 20.1967308,1.36241053 20.0428846,1.16441053 C19.8880769,0.966410526 19.6486538,0.850831579 19.3948077,0.850831579 L9.80442308,0.850831579 C9.35346154,0.850831579 8.98807692,1.21177895 8.98807692,1.65609474 L8.98807692,3.71662105 L5.64288462,3.7782 C5.39288462,3.78293684 5.15730769,3.90041053 5.00634615,4.09746316 C4.85538462,4.29356842 4.80346154,4.54746316 4.86788462,4.7862 L6.55826923,11.1733579 L2.19480769,13.4195684 L2.9525,14.8472526 L5.6275,13.4697789 L0.786153846,22.8563053 C-0.418653846,25.1915684 -0.227307692,27.9806211 1.28519231,30.1358842 L4.49480769,34.7059895 C4.64769231,34.9229368 4.89865385,35.0527263 5.16692308,35.0527263 L19.3948077,35.0527263 C19.6621154,35.0527263 19.9121154,34.9238842 20.065,34.7078842 L23.2640385,30.1879895 C24.8130769,27.9986211 24.9928846,25.1707263 23.7351923,22.8070421 Z" mask="url(#mask-2)"/></g><path id="Fill-4" fill="#21324F" d="M11.9363462,27.576 C10.0921154,27.576 8.59115385,26.0971579 8.59115385,24.2801053 C8.59115385,22.4630526 10.0921154,20.9842105 11.9363462,20.9842105 C13.7805769,20.9842105 15.2815385,22.4630526 15.2815385,24.2801053 C15.2815385,26.0971579 13.7805769,27.576 11.9363462,27.576 M11.9363462,19.3736842 C9.19115385,19.3736842 6.9575,21.5753684 6.9575,24.2801053 C6.9575,26.9857895 9.19115385,29.1865263 11.9363462,29.1865263 C14.6815385,29.1865263 16.9161538,26.9857895 16.9161538,24.2801053 C16.9161538,21.5753684 14.6815385,19.3736842 11.9363462,19.3736842"/></g></g></g></svg>