<svg width="29px" height="32px" viewBox="0 0 29 32" version="1.1" xmlns="http://www.w3.org/2000/svg" xmlns:xlink="http://www.w3.org/1999/xlink">
    <defs>
        <polygon id="path-1" points="0 -0.000274285714 28.6936875 -0.000274285714 28.6936875 31.6557714 0 31.6557714"></polygon>
    </defs>
    <g id="02-Homepage" stroke="none" stroke-width="1" fill="none" fill-rule="evenodd">
        <g id="Homepage-Wireframe" transform="translate(-782.000000, -3974.000000)">
            <g id="Page-1" transform="translate(782.000000, 3974.000000)">
                <mask id="mask-2" fill="white">
                    <use xlink:href="#path-1"></use>
                </mask>
                <g id="Clip-2"></g>
                <path d="M13.0778219,20.3928686 L13.0778219,18.8321829 L19.2330719,18.8321829 C19.6590094,18.8321829 20.0033844,18.48384 20.0033844,18.05504 L20.0033844,5.90966857 L26.8963219,5.90966857 L24.8608844,12.9332114 C24.8191969,13.07584 24.8191969,13.2276114 24.8608844,13.3693257 L26.8963219,20.3928686 L13.0778219,20.3928686 Z M4.38688438,17.2778971 L18.4627594,17.2778971 L18.4627594,2.79469714 L4.38688438,2.79469714 L4.38688438,17.2778971 Z M2.84716562,30.1016686 L1.54035312,30.1016686 L1.54035312,1.55492571 L2.84716562,1.55492571 L2.84716562,2.01755429 L2.84716562,18.05504 L2.84716562,30.1016686 Z M26.4024156,13.1517257 L28.6626031,5.35104 C28.7305719,5.11606857 28.6861656,4.86281143 28.5402594,4.66624 C28.3943531,4.47058286 28.1659781,4.35538286 27.9240094,4.35538286 L20.0033844,4.35538286 L20.0033844,2.01755429 C20.0033844,1.58875429 19.6590094,1.24041143 19.2330719,1.24041143 L4.38688437,1.24041143 L4.38688437,0.776868571 C4.38688437,0.348068571 4.04250937,-0.000274285714 3.61747812,-0.000274285714 L0.770040625,-0.000274285714 C0.344103125,-0.000274285714 -0.000271875,0.348068571 -0.000271875,0.776868571 L-0.000271875,30.8788114 C-0.000271875,31.3076114 0.344103125,31.6559543 0.770040625,31.6559543 L3.61747812,31.6559543 C4.04250937,31.6559543 4.38688437,31.3076114 4.38688437,30.8788114 L4.38688437,18.8321829 L11.5381031,18.8321829 L11.5381031,21.1700114 C11.5381031,21.5988114 11.8824781,21.9471543 12.3075094,21.9471543 L27.9240094,21.9471543 C28.1659781,21.9471543 28.3943531,21.8319543 28.5402594,21.6362971 C28.6861656,21.44064 28.7305719,21.1873829 28.6626031,20.9514971 L26.4024156,13.1517257 Z" id="Fill-1" fill="#BABDC2" mask="url(#mask-2)"></path>
            </g>
        </g>
    </g>
</svg>