<?xml version="1.0" encoding="UTF-8"?>
<svg width="36px" height="26px" viewBox="0 0 36 26" version="1.1" xmlns="http://www.w3.org/2000/svg" xmlns:xlink="http://www.w3.org/1999/xlink">
    <!-- Generator: Sketch 46.1 (44463) - http://www.bohemiancoding.com/sketch -->
    <title>Page 1</title>
    <desc>Created with Sketch.</desc>
    <defs>
        <polygon id="path-1" points="0 26.3715635 35.2411994 26.3715635 35.2411994 0.662585534 0 0.662585534"></polygon>
    </defs>
    <g id="Desktop-Mocks-[Final]" stroke="none" stroke-width="1" fill="none" fill-rule="evenodd">
        <g id="02-Category-Page" transform="translate(-699.000000, -2360.000000)">
            <g id="Page-1" transform="translate(699.000000, 2359.000000)">
                <rect id="Rectangle-6" fill="#FFFFFF" x="1.47254942" y="2.94509884" width="32.3960872" height="22.0882413"></rect>
                <polygon id="Fill-1" fill="#79CADB" points="1.09870527 1.09870527 15.8920536 16.6073823 17.5589562 17.1831614 34.0642585 1.09870527"></polygon>
                <g id="Group-4" transform="translate(0.000000, 0.436449)">
                    <mask id="mask-2" fill="white">
                        <use xlink:href="#path-1"></use>
                    </mask>
                    <g id="Clip-3"></g>
                    <path d="M23.837476,13.6731063 L32.4148271,5.42759742 L32.4148271,21.1593339 L23.837476,13.6731063 Z M13.6503608,15.9223809 L14.9414686,17.1618444 L15.0513501,17.2563425 C15.795248,17.8321216 16.6896835,18.1189124 17.584119,18.1189124 C18.4653688,18.1189124 19.3477173,17.8398133 20.0850223,17.2805164 L21.8486206,15.5839458 L31.0610868,23.6250751 L4.47745196,23.6250751 L13.6503608,15.9223809 Z M18.3708707,15.1301352 C17.8928861,15.4586809 17.2555733,15.4542856 16.7808852,15.119147 L4.56975243,3.40907399 L30.5512366,3.40907399 L18.3708707,15.1301352 Z M2.7468181,5.46715476 L11.6549125,14.0104425 L2.7468181,21.4900772 L2.7468181,5.46715476 Z M35.1618649,23.8272571 L35.1618649,1.76085127 C35.1618649,1.15430531 34.6695958,0.662036126 34.0630498,0.662036126 L1.09859538,0.662036126 C0.492049423,0.662036126 -0.000219763029,1.15430531 -0.000219763029,1.76085127 L-0.000219763029,25.2732978 C-0.000219763029,25.8798438 0.492049423,26.3721129 1.09859538,26.3721129 L34.0630498,26.3721129 C34.6695958,26.3721129 35.1618649,25.8798438 35.1618649,25.2732978 L35.1618649,24.7392736 C35.2728453,24.4414947 35.2629559,24.1239371 35.1618649,23.8272571 L35.1618649,23.8272571 Z" id="Fill-2" fill="#383D52" mask="url(#mask-2)"></path>
                </g>
            </g>
        </g>
    </g>
</svg>