<svg xmlns="http://www.w3.org/2000/svg" xmlns:xlink="http://www.w3.org/1999/xlink" width="169" height="24" version="1.1" viewBox="0 0 169 24"><title>Shape</title><desc>Created with Sketch.</desc><g id="Page-1" fill="none" fill-rule="evenodd" stroke="none" stroke-width="1"><g id="The_New_York_Times_Logo" fill="#BBBDC2" fill-rule="nonzero"><path id="Shape" d="M12.9109481,2.77305181 C12.9109481,0.935034892 11.1625905,0.352249041 9.68321106,0.397078722 L9.68321106,0.576397445 C10.5798047,0.666056807 11.2522499,1.02469425 11.2522499,1.6074801 C11.2522499,2.01094723 10.9384421,2.5489034 10.0866782,2.5489034 C9.36940329,2.5489034 8.24866127,2.14543627 7.12791925,1.78679883 C5.91751787,1.3833317 4.79677585,0.979864573 3.85535255,0.979864573 C2.01733564,0.979864573 0.582785851,2.36958468 0.582785851,4.07311255 C0.582785851,5.46283265 1.65869819,5.91112946 2.06216532,6.09044819 L2.106995,6.00078882 C1.83801691,5.8214701 1.65869819,5.5973217 1.65869819,5.01453585 C1.65869819,4.52140936 2.01733564,3.84896415 2.95875893,3.84896415 C3.81052287,3.84896415 4.93126489,4.25243127 6.45547404,4.6558984 C7.75553478,5.01453585 9.14525489,5.37317329 9.90735946,5.46283265 L9.90735946,8.46642127 L8.47280968,9.67682265 L9.90735946,10.9320537 L9.90735946,15.0563844 C9.14525489,15.5046812 8.29349095,15.6391702 7.53138638,15.6391702 C6.14166627,15.6391702 4.88643521,15.2357031 3.85535255,14.1149611 L7.75553478,12.2321145 L7.75553478,5.64215138 L3.00358861,7.79397606 C3.4967151,6.53874499 4.4381384,5.5973217 5.46922106,4.96970617 L5.42439138,4.8800468 C2.60012149,5.64215138 0,8.24227287 0,11.4700099 C0,15.3253624 3.09324798,18.1496323 6.63479276,18.1496323 C10.4901453,18.1496323 12.7316294,15.1460437 12.6867997,11.9631364 L12.5971403,11.9631364 C12.0143545,13.1735378 11.1177608,14.3391095 10.0418485,14.966725 L10.0418485,10.9320537 L11.5660577,9.72165233 L10.0418485,8.51125095 L10.0418485,5.50766234 C11.4763983,5.46283265 12.9109481,4.52140936 12.9109481,2.77305181 L12.9109481,2.77305181 Z M4.88643521,13.3528565 L3.76569319,13.9356423 C3.09324798,13.0390487 2.64495117,11.8286473 2.64495117,10.2147788 C2.64495117,9.54233361 2.73461053,8.64573999 2.95875893,8.01812446 L4.93126489,7.12153085 L4.88643521,13.3528565 L4.88643521,13.3528565 Z M22.7734779,8.06295414 L22.0113733,8.64573999 L19.7698892,6.62840436 L17.1249381,8.64573999 L17.1249381,0.84537553 L13.5385636,3.31100798 C13.9420307,3.44549702 14.4351572,3.66964542 14.4351572,4.61106872 L14.4351572,15.4598515 L13.2247558,16.4012748 L13.3592449,16.5357638 L13.9868604,16.087467 L16.0938554,18.0151433 L18.962955,16.1322967 L18.8284659,15.952978 L18.1111911,16.4461045 L17.1249381,15.4598515 L17.1249381,8.91471808 L17.7973833,8.42159159 L19.3664221,9.76648201 L19.3664221,15.4598515 C19.3664221,19.0462259 18.5594879,19.8083305 16.9456194,20.3911164 L16.9456194,20.4807757 C19.6354002,20.6152648 22.056203,19.6738415 22.056203,15.0563844 L22.056203,8.8698884 L22.8631372,8.19744318 L22.7734779,8.06295414 L22.7734779,8.06295414 Z M27.5702537,17.9703136 L31.6945843,14.6529172 L31.5600953,14.4735985 L29.4082706,16.1771264 L26.8978085,14.2494501 L26.8978085,13.0390487 L31.2014579,9.99063042 L29.0496332,6.62840436 L24.2528573,9.27335552 L24.2528573,15.5046812 L23.311434,16.2219561 L23.4459231,16.3564451 L24.3425167,15.6391702 L27.5702537,17.9703136 L27.5702537,17.9703136 Z M26.8978085,12.7700706 L26.8978085,8.06295414 L28.9599738,11.3355208 L26.8978085,12.7700706 L26.8978085,12.7700706 Z M48.8195224,1.87645819 C48.8195224,1.56265042 48.7298631,1.33850202 48.6402037,0.979864573 L48.5505443,0.979864573 C48.2367366,1.78679883 47.9229288,2.19026596 47.0263352,2.19026596 C46.2194009,2.19026596 45.5917854,1.69713947 45.2331479,1.33850202 C45.2331479,1.3833317 42.4985374,4.47657968 42.4985374,4.47657968 L42.6330265,4.61106872 L43.395131,3.7144751 C43.9779169,4.16277191 44.5158731,4.70072808 45.8159338,4.70072808 L45.8159338,12.6355816 L40.3018831,2.99720021 C39.8535862,2.27992532 39.1363114,1.20401298 37.8362506,1.20401298 C36.3568711,1.20401298 35.1912994,2.50407372 35.3706182,4.6558984 L35.4602775,4.6558984 C35.5947666,4.11794223 35.9085743,3.44549702 36.5361899,3.44549702 C37.074146,3.44549702 37.4776132,3.93862351 37.7465913,4.38692032 L37.7465913,7.48016829 C36.0430634,7.48016829 35.0568104,8.28710255 35.0568104,9.63199297 C35.0568104,10.2147788 35.4602775,11.4251802 36.6258492,11.6044989 L36.6258492,11.5148396 C36.4465305,11.3355208 36.3120415,11.2010318 36.3120415,10.887224 C36.3120415,10.3492679 36.7155086,10.0802898 37.3879538,10.0802898 C37.5224428,10.0802898 37.6569319,10.1251195 37.7465913,10.1251195 L37.7465913,14.1597907 C35.7292556,14.2046204 34.1602168,15.2805328 34.1602168,17.208209 C34.1602168,19.0013963 35.7292556,19.8531602 37.3431241,19.7635008 L37.3431241,19.6738415 C36.3120415,19.5393524 35.818915,19.0462259 35.818915,18.2841214 C35.818915,17.4771871 36.4017008,17.0288903 37.1638054,17.0288903 C37.92591,17.0288903 38.4638661,17.5220168 38.9569926,18.059973 L41.6916032,15.0115547 L41.5571141,14.8770656 L40.8398392,15.6839999 C39.8087566,14.7425766 39.1363114,14.3391095 37.92591,14.1597907 L37.92591,4.6558984 L45.5917854,18.0151433 L45.9952525,18.0151433 L45.9952525,4.70072808 C47.5194617,4.61106872 48.8195224,3.53515638 48.8195224,1.87645819 L48.8195224,1.87645819 Z M51.4196439,17.9703136 L55.5439745,14.6529172 L55.4094855,14.4735985 L53.2576608,16.1771264 L50.7471987,14.2046204 L50.7471987,12.994219 L55.050848,9.94580074 L52.8990234,6.58357468 L48.1022475,9.22852584 L48.1022475,15.4598515 L47.1608242,16.1771264 L47.2953133,16.3116154 L48.1919069,15.5943405 L51.4196439,17.9703136 L51.4196439,17.9703136 Z M50.7920284,12.7700706 L50.7920284,8.06295414 L52.8541937,11.3355208 L50.7920284,12.7700706 L50.7920284,12.7700706 Z M70.2481098,7.7043167 L69.6204943,8.19744318 L67.8273071,6.67323404 L65.7203121,8.55608063 L66.572076,9.36301489 L66.572076,16.4461045 L64.4202513,14.966725 L64.4202513,9.22852584 L65.1823559,8.69056967 L62.9857016,6.62840436 L60.9235362,8.51125095 L61.7753002,9.31818521 L61.7753002,16.1771264 L61.6408111,16.2667857 L59.6234755,14.7874063 L59.6234755,9.18369616 C59.6234755,7.88363542 58.9510303,7.48016829 58.144096,6.9870418 C57.4268211,6.53874499 57.0681837,6.13527787 57.0681837,5.50766234 C57.0681837,4.79038744 57.6957992,4.47657968 57.9199476,4.38692032 C57.2026727,4.34209063 55.1853371,5.10419521 55.1405074,6.94221212 C55.0956777,7.88363542 55.5888042,8.28710255 56.037101,8.73539935 C56.5302275,9.18369616 56.9785243,9.63199297 56.9785243,10.3940975 L56.9785243,15.9081483 L55.9922713,16.6702529 L56.1267604,16.8047419 L57.0681837,16.087467 L59.4889864,18.059973 L61.8201299,16.4461045 L64.3754217,18.059973 L69.3515162,15.101214 L69.3515162,8.69056967 L70.4722582,7.83880574 L70.2481098,7.7043167 L70.2481098,7.7043167 Z M86.9247511,2.324755 L85.9833278,3.17651893 L83.8763328,1.33850202 L81.0072332,3.66964542 L81.0072332,1.51782074 L80.8279145,1.51782074 L80.8279145,17.07372 C80.5141068,17.0288903 79.8416615,16.8495716 79.1243866,16.7150825 L79.1243866,3.7144751 C79.1243866,2.77305181 78.4519414,1.47299106 76.7484136,1.47299106 C75.000056,1.47299106 73.9689734,2.90754085 73.9689734,4.16277191 L74.0586327,4.16277191 C74.1482921,3.57998606 74.5517592,3.08685957 75.0897154,3.08685957 C75.6725012,3.08685957 76.1656277,3.44549702 76.1656277,4.70072808 L76.1656277,8.42159159 C74.5517592,8.51125095 73.5655062,9.49750393 73.5655062,10.5734163 C73.5655062,11.2010318 73.9689734,12.3217738 75.1793747,12.3666035 L75.1793747,12.2769441 C74.7759076,12.0976254 74.6862482,11.873477 74.6862482,11.6493286 C74.6862482,11.1113724 75.2242044,10.9320537 75.9414793,10.9320537 L76.120798,10.9320537 L76.120798,16.8944013 C74.7310779,17.3875278 74.1034624,18.2841214 74.1034624,19.4496931 C74.1034624,21.0187319 75.3586935,22.273963 77.2415401,22.273963 C78.5416008,22.273963 79.4830241,22.0498146 80.6934255,21.7808365 C81.6796785,21.5566881 82.7107611,21.3325397 83.293547,21.3325397 C84.0108219,21.3325397 84.3246296,21.6463474 84.3246296,22.1843036 C84.3246296,22.8567488 84.0556515,23.1705566 83.6970141,23.3050456 L83.6970141,23.394705 C85.2660529,23.0808972 86.1626465,22.1843036 86.1626465,20.7945835 C86.1626465,19.3600337 84.7729264,18.4634401 83.2487173,18.4634401 C82.441783,18.4634401 81.0072332,18.7324182 79.8416615,19.0013963 C78.5416008,19.315204 77.3760291,19.4496931 76.972562,19.4496931 C76.3001168,19.4496931 75.4931825,19.1358853 75.4931825,18.2841214 C75.4931825,17.4771871 76.1656277,16.8495716 77.7794962,16.8495716 C78.6760898,16.8495716 79.5278538,16.9840606 80.6037661,17.2530387 C81.7693378,17.5220168 82.5314424,17.8358246 83.562525,17.8358246 C84.9522452,17.8358246 86.0729872,17.3426981 86.0729872,15.3253624 L86.0729872,3.40066734 L87.1040698,2.45924404 L86.9247511,2.324755 L86.9247511,2.324755 Z M83.0245689,8.55608063 C82.7555908,8.82505872 82.4866127,9.04920712 81.9934862,9.04920712 C81.4555301,9.04920712 81.186552,8.78022904 80.9624036,8.55608063 L80.9624036,3.89379383 L81.6348488,3.35583766 L83.0245689,4.52140936 L83.0245689,8.55608063 L83.0245689,8.55608063 Z M83.0245689,10.7975647 C82.8004205,10.5734163 82.4866127,10.3492679 81.9934862,10.3492679 C81.5003597,10.3492679 81.1417223,10.6182459 80.9624036,10.7975647 L80.9624036,8.82505872 C81.186552,9.00437744 81.5003597,9.27335552 81.9934862,9.27335552 C82.4866127,9.27335552 82.8004205,9.04920712 83.0245689,8.82505872 L83.0245689,10.7975647 L83.0245689,10.7975647 Z M83.0245689,15.4598515 C83.0245689,16.2219561 82.6211018,17.07372 81.6348488,17.07372 C81.4555301,17.07372 81.0968926,17.0288903 80.9624036,17.0288903 L80.9624036,11.0217131 C81.186552,10.7975647 81.5003597,10.5285866 81.9934862,10.5285866 C82.4866127,10.5285866 82.7555908,10.752735 83.0245689,11.0217131 L83.0245689,15.4598515 L83.0245689,15.4598515 Z M91.0939114,17.9703136 L95.7113686,15.101214 L95.7113686,8.82505872 L92.7077799,6.62840436 L88.0903228,9.27335552 L88.0903228,15.5046812 L87.1937292,16.2219561 L87.2833886,16.3564451 L88.0454931,15.7288296 L91.0939114,17.9703136 L91.0939114,17.9703136 Z M90.7801037,14.7425766 L90.7801037,8.01812446 L93.1112471,9.72165233 L93.1112471,16.4012748 L90.7801037,14.7425766 L90.7801037,14.7425766 Z M104.542816,6.7628934 C104.184178,7.03187148 103.87037,7.16636053 103.511733,7.16636053 C103.153096,7.16636053 102.704799,6.94221212 102.48065,6.62840436 C102.48065,6.67323404 100.777122,8.46642127 100.777122,8.46642127 L99.0735946,6.62840436 L96.2493247,8.55608063 L96.3389841,8.73539935 L97.1010887,8.24227287 L98.1321713,9.36301489 L98.1321713,15.4598515 L96.9217699,16.4012748 L97.056259,16.5357638 L97.6838745,16.087467 L99.9701882,18.0151433 L102.884117,16.087467 L102.794458,15.952978 L102.032354,16.4012748 L100.866782,15.3253624 L100.866782,8.64573999 C101.359908,9.18369616 101.897865,9.63199297 102.52548,9.63199297 C103.601392,9.63199297 104.408327,8.24227287 104.542816,6.7628934 L104.542816,6.7628934 Z M115.481258,15.7736592 L114.629494,16.3116154 L109.832718,9.18369616 L110.101696,8.82505872 C110.639652,9.13886648 111.087949,9.58716329 112.074202,9.58716329 C113.060455,9.58716329 114.315686,8.55608063 114.450175,6.62840436 C114.181197,6.9870418 113.688071,7.39050893 112.881136,7.39050893 C112.29835,7.39050893 111.715565,6.9870418 111.356927,6.62840436 L108.08436,11.4251802 L112.38801,18.0151433 L115.526087,15.952978 L115.481258,15.7736592 L115.481258,15.7736592 Z M109.653399,15.952978 L108.936124,16.4461045 L107.949871,15.4598515 L107.949871,0.84537553 L104.363497,3.31100798 C104.766964,3.44549702 105.260091,3.66964542 105.260091,4.61106872 L105.260091,15.4598515 L104.049689,16.4012748 L104.184178,16.5357638 L104.811794,16.087467 L106.918789,18.0151433 L109.787888,16.1322967 L109.653399,15.952978 L109.653399,15.952978 Z M130.67852,2.77305181 C130.67852,0.935034892 128.930162,0.352249041 127.450783,0.397078722 L127.450783,0.576397445 C128.347376,0.666056807 129.019821,1.02469425 129.019821,1.6074801 C129.019821,2.01094723 128.706014,2.5489034 127.85425,2.5489034 C127.136975,2.5489034 126.016233,2.14543627 124.895491,1.78679883 C123.685089,1.3833317 122.564347,0.979864573 121.622924,0.979864573 C119.784907,0.979864573 118.350357,2.36958468 118.350357,4.07311255 C118.350357,5.46283265 119.42627,5.91112946 119.829737,6.09044819 L119.874567,6.00078882 C119.605588,5.8214701 119.42627,5.5973217 119.42627,5.01453585 C119.42627,4.52140936 119.784907,3.84896415 120.72633,3.84896415 C121.578094,3.84896415 122.698836,4.25243127 124.223046,4.6558984 C125.523106,5.01453585 126.912826,5.37317329 127.674931,5.46283265 L127.674931,8.46642127 L126.240381,9.67682265 L127.674931,10.9320537 L127.674931,15.0563844 C126.912826,15.5046812 126.061062,15.6391702 125.298958,15.6391702 C123.909238,15.6391702 122.654007,15.2357031 121.622924,14.1149611 L125.523106,12.2321145 L125.523106,5.64215138 L120.72633,7.74914638 C121.219457,6.49391531 122.16088,5.55249202 123.191963,4.92487649 L123.147133,4.83521712 C120.322863,5.5973217 117.722742,8.19744318 117.722742,11.4251802 C117.722742,15.2805328 120.81599,18.1048026 124.357535,18.1048026 C128.212887,18.1048026 130.454371,15.101214 130.409542,11.9183067 L130.319882,11.9183067 C129.737096,13.1287081 128.840503,14.2942798 127.76459,14.9218953 L127.76459,10.887224 L129.288799,9.67682265 L127.76459,8.46642127 L127.76459,5.46283265 C129.24397,5.46283265 130.67852,4.52140936 130.67852,2.77305181 L130.67852,2.77305181 Z M122.609177,13.3528565 L121.488435,13.9356423 C120.81599,13.0390487 120.367693,11.8286473 120.367693,10.2147788 C120.367693,9.54233361 120.457352,8.64573999 120.681501,8.01812446 L122.654007,7.12153085 L122.609177,13.3528565 L122.609177,13.3528565 Z M133.592449,2.05577691 L131.619943,3.7144751 L133.323471,5.64215138 L135.295977,3.98345319 L133.592449,2.05577691 L133.592449,2.05577691 Z M136.640867,15.952978 L135.923592,16.4461045 L134.937339,15.4598515 L134.937339,8.8698884 L135.789103,8.19744318 L135.654614,8.06295414 L134.937339,8.60091031 L133.278641,6.62840436 L130.544031,8.51125095 L130.63369,8.69056967 L131.306135,8.24227287 L132.202729,9.36301489 L132.202729,15.4598515 L130.992327,16.4012748 L131.126816,16.5357638 L131.754432,16.087467 L133.861427,18.0151433 L136.730527,16.1322967 L136.640867,15.952978 L136.640867,15.952978 Z M151.882959,15.8633186 L151.210513,16.3116154 L150.134601,15.2805328 L150.134601,8.8698884 L150.986365,8.19744318 L150.851876,8.06295414 L150.089771,8.64573999 L147.848287,6.62840436 L145.292996,8.60091031 L143.051511,6.62840436 L140.541049,8.60091031 L138.837522,6.62840436 L136.102911,8.51125095 L136.19257,8.69056967 L136.865016,8.24227287 L137.851269,9.36301489 L137.851269,15.4150218 L137.089164,16.1771264 L139.240989,18.0151433 L141.347984,16.1322967 L140.49622,15.3253624 L140.49622,8.82505872 L141.079006,8.42159159 L142.648044,9.76648201 L142.648044,15.4150218 L141.930769,16.1771264 L144.127424,18.0151433 L146.189589,16.1322967 L145.337825,15.3253624 L145.337825,8.82505872 L145.875781,8.37676191 L147.44482,9.76648201 L147.44482,15.3253624 L146.817205,15.9978076 L149.013859,18.0151433 L151.927788,16.0426373 L151.882959,15.8633186 L151.882959,15.8633186 Z M159.817812,14.5184282 L157.665987,16.2219561 L155.155525,14.2494501 L155.155525,13.0390487 L159.459175,9.99063042 L157.30735,6.62840436 L152.510574,9.27335552 L152.510574,15.6391702 L155.783141,18.0151433 L159.907471,14.6977469 L159.817812,14.5184282 L159.817812,14.5184282 Z M155.155525,12.7700706 L155.155525,8.06295414 L157.217691,11.3355208 L155.155525,12.7700706 L155.155525,12.7700706 Z M168.111303,11.873477 L166.273286,10.4837569 C167.483688,9.40784457 167.931984,8.06295414 167.931984,7.07670116 C167.931984,6.94221212 167.887155,6.67323404 167.887155,6.44908563 L167.797495,6.44908563 C167.618177,6.94221212 167.12505,7.39050893 166.407775,7.39050893 C165.6905,7.39050893 165.242204,6.9870418 164.793907,6.49391531 L160.579917,8.82505872 L160.579917,12.2321145 L162.193785,13.4873455 C160.579917,14.9218953 160.266109,15.8184889 160.266109,16.6254232 C160.266109,17.4771871 160.759235,18.1496323 161.56617,18.4634401 L161.655829,18.3289511 C161.431681,18.1496323 161.252362,18.0151433 161.252362,17.6116762 C161.252362,17.2978684 161.56617,16.8047419 162.283445,16.8047419 C163.224868,16.8047419 163.762824,17.4323574 164.076632,17.7909949 C164.076632,17.7461652 168.111303,15.3253624 168.111303,15.3253624 L168.111303,11.873477 L168.111303,11.873477 Z M167.16988,9.0940368 C166.542264,10.2147788 165.152544,11.3355208 164.30078,11.9631364 L163.269698,11.1113724 L163.269698,7.79397606 C163.673165,8.69056967 164.524929,9.45267425 165.600841,9.45267425 C166.273286,9.45267425 166.676753,9.31818521 167.16988,9.0940368 L167.16988,9.0940368 Z M165.421522,16.5357638 C164.928396,15.4598515 163.942143,14.6977469 162.776571,14.6977469 C162.507593,14.6977469 161.655829,14.6529172 160.938554,15.1460437 C161.386851,14.4287688 162.642082,13.1287081 164.30078,12.1424551 L165.421522,13.0838784 L165.421522,16.5357638 L165.421522,16.5357638 Z"/></g></g></svg>