<?xml version="1.0" encoding="UTF-8"?>
<svg width="51px" height="24px" viewBox="0 0 51 24" version="1.1" xmlns="http://www.w3.org/2000/svg" xmlns:xlink="http://www.w3.org/1999/xlink">
    <!-- Generator: Sketch 49.3 (51167) - http://www.bohemiancoding.com/sketch -->
    <title>Page 1</title>
    <desc>Created with Sketch.</desc>
    <defs></defs>
    <g id="02-Homepage" stroke="none" stroke-width="1" fill="none" fill-rule="evenodd">
        <g id="Homepage-Wireframe" transform="translate(-521.000000, -720.000000)" fill="#BABDC2">
            <g id="Group-2" transform="translate(273.000000, 706.000000)">
                <g id="Page-1" transform="translate(248.000000, 14.000000)">
                    <path d="M12.2577277,0.0869542359 C-4.2026538,0.0869542359 -4.0425412,23.5421922 12.4807776,23.5547797 L18.9449465,23.5547797 C21.7232526,23.5547797 23.4973305,21.9095975 23.4940578,18.8737517 L23.4940578,12.9274314 C23.4940578,12.9274314 27.1232768,18.9271226 28.5484301,21.2784618 C30.9659794,25.2749832 36.8118517,24.4867559 36.7959915,19.495321 L36.7959915,12.9274314 C36.7959915,12.9274314 40.4126231,18.9271226 41.8350071,21.2784618 C44.2523047,25.2749832 50.1137855,24.4867559 50.098177,19.495321 L50.098177,0.083681494 L47.1406253,0.083681494 L47.1406253,19.0776687 C47.143898,19.8059797 46.7607355,20.3459821 46.2333205,20.5184304 C45.7059056,20.6911305 45.0999448,20.474626 44.7326425,19.9535048 L44.717034,19.9535048 L44.717034,19.9253089 C44.717034,19.9253089 36.9246355,7.46472157 34.9373258,4.21514057 C34.9310321,4.20909859 34.9280111,4.22143431 34.9217174,4.21514057 C34.9186964,4.21514057 34.9249901,4.19953211 34.9217174,4.19953211 C34.7178004,3.92638403 34.453967,3.86697118 34.2374626,3.93292952 C34.0144126,4.00190885 33.8039501,4.19349013 33.8072229,4.67684894 L33.8072229,19.062312 C33.8104956,19.7873502 33.4366478,20.3588213 32.9157783,20.5347941 C32.3944054,20.7105152 31.7947383,20.4784023 31.4307087,19.9540083 L31.4307087,19.9383999 L31.4148485,19.9383999 C31.4148485,19.9383999 23.616408,7.45288935 21.6353921,4.21287483 C21.4282023,3.91757281 21.161348,3.84557248 20.9382981,3.91455181 C20.7154999,3.98353114 20.5052891,4.17511242 20.5083101,4.65847123 L20.5083101,4.67433144 L20.5083101,18.955822 C20.5083101,19.8223434 19.7956076,20.5476334 18.932359,20.5476334 L12.0349295,20.5476334 C9.00839842,20.5476334 6.71345107,19.4583138 5.19716456,17.8131316 C3.68062629,16.1679494 2.93343413,13.9860375 2.93670687,11.8073984 C2.93972786,9.63178024 3.68692002,7.4342599 5.16569588,5.78882595 C6.64447174,4.1438955 8.86414603,3.05759692 11.7333337,3.05457593 L15.9247091,3.05457593 L15.9247091,0.081667499 L12.2547067,0.081667499 L12.2577277,0.0869542359 Z M20.6243666,0.0114294219 C18.5494482,0.158954559 16.7912305,1.90483651 16.7912305,4.3661902 L16.7912305,16.0765644 C16.7912305,16.5000068 16.477299,16.8642882 16.0188634,16.8642882 L12.3614484,16.8642882 C4.44342691,16.8738547 5.14681468,6.75504007 11.8874043,6.7424526 L15.9310029,6.7424526 L15.9310029,3.80076109 L11.7396275,3.80076109 C9.05547556,3.80076109 7.06514496,4.80222013 5.72130677,6.29660445 C4.37772032,7.79124052 3.70278023,9.80347332 3.69950749,11.8094124 C3.6964865,13.8156032 4.36186011,15.8155003 5.73716698,17.3096328 C7.11222209,18.8009962 9.19041323,19.8057279 12.0379505,19.8057279 L18.93538,19.8057279 C19.3905429,19.8057279 19.7674117,19.4135024 19.7674117,18.9580878 L19.7674117,4.67634544 C19.7641389,3.9419925 20.1787702,3.37026965 20.7187726,3.20386331 C21.258775,3.03745697 21.8929317,3.24766771 22.263255,3.78464913 L22.2791153,3.80025759 C24.2412499,7.0085517 32.0303758,19.5038804 32.0427115,19.5257826 C32.2561949,19.8303994 32.5107136,19.8837703 32.6960011,19.8241056 C32.8810369,19.7611683 33.0693454,19.560524 33.0663245,19.064326 L33.0663245,4.67609369 C33.0633035,3.941489 33.4776829,3.3700179 34.0176854,3.20361156 C34.5576878,3.03720522 35.1759843,3.24741596 35.5498321,3.78439738 L35.5498321,3.7997541 L35.5777763,3.7997541 C37.5401627,7.00829995 45.3292885,19.5033769 45.341876,19.5255309 C45.5520867,19.8268749 45.8000599,19.8865395 45.9946621,19.8236021 C46.1895161,19.7609166 46.3841184,19.572608 46.3808457,19.0796827 L46.3808457,0.085695489 L43.4235457,0.085695489 L43.4235457,11.1712277 C43.4235457,11.1712277 41.6590343,8.15753587 38.6390487,2.96772239 C35.678476,-2.11509759 30.0931643,-0.0117315211 30.0931643,4.36493145 L30.0931643,11.1712277 C30.0931643,11.1712277 28.3601215,8.15753587 25.3368632,2.96772239 C24.0433749,0.744775367 22.2383319,-0.105885789 20.6243666,0.0104224243 L20.6243666,0.0114294219 Z" id="Fill-1"></path>
                </g>
            </g>
        </g>
    </g>
</svg>