<?xml version="1.0" encoding="UTF-8"?>
<svg width="46px" height="37px" viewBox="0 0 46 37" version="1.1" xmlns="http://www.w3.org/2000/svg" xmlns:xlink="http://www.w3.org/1999/xlink">
    <!-- Generator: Sketch 49.3 (51167) - http://www.bohemiancoding.com/sketch -->
    <title>Page 1</title>
    <desc>Created with Sketch.</desc>
    <defs>
        <polygon id="path-1" points="0 0.0877077857 45.4529937 0.0877077857 45.4529937 26.8994297 0 26.8994297"></polygon>
    </defs>
    <g id="02-Homepage" stroke="none" stroke-width="1" fill="none" fill-rule="evenodd">
        <g id="Homepage-Wireframe" transform="translate(-415.000000, -710.000000)">
            <g id="Group-2" transform="translate(273.000000, 706.000000)">
                <g id="Page-1" transform="translate(142.000000, 4.000000)">
                    <g id="Group-3" transform="translate(0.000000, 0.108069)">
                        <mask id="mask-2" fill="white">
                            <use xlink:href="#path-1"></use>
                        </mask>
                        <g id="Clip-2"></g>
                        <path d="M22.7248915,3.55506281 C22.0163771,1.78583232 20.2900216,-0.124748663 17.0571674,0.137591589 C12.9386212,0.585332004 11.6553075,4.53218236 12.2776804,6.88678401 C10.6374665,5.77614502 7.84824146,5.28768313 5.41395885,7.37309236 C2.27057446,10.5239163 3.95190139,14.7849876 5.67982308,15.8071357 C3.77550693,15.630937 0.765641983,16.9177747 0.0998067615,20.2837567 C-0.608511919,24.4631893 2.57755171,26.8994297 5.67982308,26.8994297 L40.08144,26.8994297 C43.6688451,26.8994297 45.6593028,23.7961795 45.4361178,20.8689321 C45.084112,17.0493364 41.5887218,15.5835591 39.6818606,15.8975843 C41.2748924,15.0087599 43.4023935,10.8338301 40.1673858,7.55144458 C37.599388,5.10893936 34.3256166,5.9977638 33.1744519,7.06298269 C33.794867,5.02240624 32.7774176,0.804405692 28.6122766,0.137200036 C28.3242897,0.104896946 28.0470704,0.0876686305 27.7827724,0.0876686305 C24.6033652,0.0882559594 23.1736108,2.41251228 22.7248915,3.55506281" id="Fill-1" fill="#FFFFFF" mask="url(#mask-2)"></path>
                    </g>
                    <path d="M5.98678075,8.14611511 C4.17056394,9.79024454 3.50942735,13.5158677 6.78359032,15.6936833 L19.8455898,24.6549522 L13.5122262,10.1453828 C12.1850586,6.72145092 8.55438702,5.97476008 5.98678075,8.14611511" id="Fill-4" fill="#BABDC2"></path>
                    <path d="M17.2306448,1.09157038 C15.1074507,1.13483694 11.9192336,3.66309218 13.3380245,7.52399674 L19.8883082,22.9723136 L22.190246,6.72366319 C22.7227575,2.68636418 19.6672767,0.822573733 17.2306448,1.09157038" id="Fill-6" fill="#BABDC2"></path>
                    <path d="M23.2123354,6.10403118 L24.4508163,6.10403118 C24.4508163,6.10403118 25.1123444,6.10403118 25.2024015,6.41609861 C24.7149185,6.81411185 23.3881425,6.8640348 23.5643412,8.98996973 L25.646618,22.9701601 L32.1522647,7.4813175 C33.4827604,4.02292903 30.6896199,1.13464117 28.2120707,1.04654183 C28.0963669,1.03812345 27.9802715,1.03127128 27.8600649,1.03127128 C25.6362418,1.03127128 23.0878216,2.64760047 23.2123354,6.10403118" id="Fill-8" fill="#BABDC2"></path>
                    <path d="M31.8902572,10.2768857 L25.7370079,24.6126058 L38.7950918,15.6037633 C41.8051525,13.4688226 41.3196273,10.0554627 39.6347764,8.36826249 C38.9284155,7.57399801 37.6313974,6.96082661 36.2574393,6.96082661 C34.6344537,6.96043506 32.8973306,7.82126348 31.8902572,10.2768857" id="Fill-10" fill="#BABDC2"></path>
                    <path d="M37.3330735,17.6435566 L25.0698414,26.2091616 L40.1692849,26.2091616 C43.2672492,26.2091616 45.2579027,23.0150712 44.372798,20.0841041 C43.7801831,18.241849 42.0266147,16.7954536 39.9911284,16.7933001 C39.1344113,16.7936917 38.2258135,17.0519206 37.3330735,17.6435566 L38.4726562,9.85839844" id="Fill-12" fill="#BABDC2"></path>
                    <path d="M5.63491199,26.209142 L20.511562,26.209142 L8.2451975,17.643537 C5.41153122,15.8228174 2.22507604,16.888232 1.07489024,19.909452 C0.0999242273,23.368232 2.53440261,26.209142 5.63491199,26.209142" id="Fill-14" fill="#BABDC2"></path>
                    <path d="M0.0479260401,32.4082226 C0.0479260401,33.8671476 1.2405953,36.5224617 5.79415644,36.5224617 C9.99238358,36.5224617 11.3183765,34.5960228 11.3183765,33.7126801 L8.06809825,33.7126801 C8.06809825,33.7126801 7.91363074,34.8797027 6.08018562,34.8797027 C4.24556585,34.8797027 3.74946868,33.3483404 3.74946868,32.4628442 C3.74946868,31.5806762 4.24556585,30.1321273 6.08018562,30.1321273 C7.91363074,30.1321273 8.06809825,31.1480105 8.06809825,31.1480105 L11.3183765,31.1480105 C11.3183765,30.2636889 10.345564,28.364463 5.79415644,28.364463 C1.2405953,28.364463 0.0479260401,31.1924517 0.0479260401,32.4082226" id="Fill-16" fill="#BABDC2"></path>
                    <path d="M34.1345977,32.4082226 C34.1345977,33.8671476 35.3284416,36.5224617 39.8808281,36.5224617 C44.0786636,36.5224617 45.4050481,34.5960228 45.4050481,33.7126801 L42.1571192,33.7126801 C42.1571192,33.7126801 42.0020644,34.8797027 40.1680319,34.8797027 C38.3332164,34.8797027 37.8365319,33.3483404 37.8365319,32.4628442 C37.8365319,31.5806762 38.3332164,30.1321273 40.1680319,30.1321273 C42.0020644,30.1321273 42.1571192,31.1480105 42.1571192,31.1480105 L45.4050481,31.1480105 C45.4050481,30.2636889 44.4332145,28.364463 39.8808281,28.364463 C35.3284416,28.364463 34.1345977,31.1924517 34.1345977,32.4082226" id="Fill-18" fill="#BABDC2"></path>
                    <polygon id="Fill-20" fill="#BABDC2" points="20.2012174 28.5007233 20.2012174 33.4391806 16.4186234 28.5007233 12.1636211 28.5007233 12.1636211 36.3225741 15.0806881 36.3225741 15.0806881 31.3273416 18.7971098 36.3225741 23.1184802 36.3225741 23.1184802 28.5007233"></polygon>
                    <path d="M31.9363234,32.1642657 C32.4672687,32.1642657 33.577712,31.5477662 33.577712,30.3533349 C33.577712,28.6526261 30.4108344,28.5007037 29.9251134,28.5007037 L24.0903921,28.5007037 L24.0903921,36.3225545 L29.9251134,36.3225545 C32.731371,36.3225545 33.858651,35.4360794 33.858651,33.955619 C33.858651,32.4751585 31.9363234,32.1642657 31.9363234,32.1642657 Z M27.1407827,30.0220814 L29.4828547,30.0220814 L29.4828547,30.0252138 C29.8796933,30.0252138 30.2013538,30.2863794 30.2013538,30.6076483 C30.2013538,30.9300919 29.8796933,31.189104 29.4828547,31.189104 L29.4828547,31.1924322 L27.1407827,31.1924322 L27.1407827,30.0220814 Z M29.5490271,34.4538697 L29.5490271,34.4642458 L27.1184642,34.4642458 L27.1184642,33.0280308 L29.5490271,33.0280308 L29.5490271,33.0327294 C30.0680301,33.0327294 30.4875787,33.3516491 30.4875787,33.7443763 C30.4875787,34.1361247 30.0680301,34.4538697 29.5490271,34.4538697 Z" id="Fill-22" fill="#BABDC2"></path>
                </g>
            </g>
        </g>
    </g>
</svg>