<?xml version="1.0" encoding="UTF-8"?>
<svg width="155px" height="23px" viewBox="0 0 155 23" version="1.1" xmlns="http://www.w3.org/2000/svg" xmlns:xlink="http://www.w3.org/1999/xlink">
    <!-- Generator: Sketch 49.3 (51167) - http://www.bohemiancoding.com/sketch -->
    <title>logo-fastco</title>
    <desc>Created with Sketch.</desc>
    <defs>
        <polygon id="path-1" points="14.1275251 22.8071289 0.384475562 22.8071289 0.384475562 0.0746494873 14.1275251 0.0746494873"></polygon>
    </defs>
    <g id="02-Homepage" stroke="none" stroke-width="1" fill="none" fill-rule="evenodd">
        <g id="Homepage-Wireframe" transform="translate(-942.000000, -720.000000)">
            <g id="Group-2" transform="translate(273.000000, 706.000000)">
                <g id="logo-fastco" transform="translate(669.000000, 14.000000)">
                    <path d="M73.259656,6.19976711 C73.259656,9.29978225 72.9491281,18.9094783 72.9491281,18.9094783 C72.9491281,20.7691365 73.5701838,21.5954563 75.3263327,21.5954563 L75.3263327,22.4226533 L68.4034919,22.4226533 L68.4034919,21.5954563 C70.1596408,21.5954563 71.0894699,20.7691365 71.0894699,18.9094783 L71.7096484,3.20326125 C71.1929792,1.96290432 70.67631,1.54974441 69.333321,1.44711233 L69.333321,0.723424585 L74.602645,0.723424585 L80.1824968,15.3963032 L85.8658579,0.723424585 L90.6185126,0.723424585 L90.6185126,1.44711233 C89.2755236,1.44711233 88.5527131,2.0664136 88.5527131,3.51291189 L89.1728916,18.7015825 C89.1728916,20.9752779 89.5851743,21.5954563 91.4448325,21.5954563 L91.4448325,22.4226533 L83.4886533,22.4226533 L83.4886533,21.5954563 C85.039538,21.5954563 85.7623486,21.0787871 85.6597165,18.7015825 C85.6597165,18.7015825 85.3491887,8.05942532 85.2456794,6.19976711 L81.4228537,16.7392923 C80.9061845,18.0822813 80.3895153,19.6322888 79.9754782,21.2858057 L78.7359985,21.389315 C78.4263479,20.2524673 77.5991508,18.1857906 77.5991508,18.1857906 C77.5991508,18.1857906 74.3965036,9.19627297 73.259656,6.19976711" id="Fill-1" fill="#BABDC2"></path>
                    <path d="M66.7500628,22.5260749 C66.3369029,22.4225656 65.9237429,22.4225656 65.5097058,22.4225656 C64.683386,22.4225656 63.2368877,22.8357255 61.4807388,22.8357255 C54.7640393,22.8357255 49.804366,18.8058813 49.804366,11.3654941 C49.804366,5.06283174 54.4535115,0.206667676 61.5833709,0.206667676 C63.2368877,0.206667676 65.0965459,0.517195508 66.6465535,1.13649678 C66.9562041,0.826846143 67.0605906,0.619827588 67.3702412,0.310176953 L67.9904197,0.310176953 C67.8869104,1.44702461 67.4737505,5.16634102 67.4737505,5.16634102 L66.853572,5.16634102 C66.4395349,2.99615498 65.3035645,1.54965669 61.6868802,1.54965669 C57.3473853,1.54965669 53.4210503,4.96019966 53.4210503,11.262862 C53.4210503,18.3927214 57.4500174,21.4918593 61.8930215,21.4918593 C64.7868953,21.4918593 66.5430442,19.8392197 67.6798919,17.7725429 L68.4035796,18.0830708 L66.7500628,22.5260749 Z" id="Fill-3" fill="#BABDC2"></path>
                    <path d="M47.2208446,4.75291794 L46.4971569,4.75291794 C46.3945248,2.78975046 45.7743463,2.17044919 44.2243387,2.17044919 L41.2278329,2.17044919 L41.2278329,18.3924582 C41.2278329,21.0793135 41.7445021,21.5959826 43.500651,21.5959826 L43.500651,22.4223025 L35.7514904,22.4223025 L35.7514904,21.5959826 C37.5085165,21.5959826 38.0251857,21.0793135 38.0251857,18.288949 L38.0251857,2.17044919 L35.0286798,2.17044919 C33.0646351,2.17044919 32.7549845,2.68624119 32.2383153,4.75291794 L31.5155048,4.75291794 L32.032174,0.103772437 L32.5479659,0.206404517 C32.7549845,0.723073706 33.1681444,0.723073706 34.4085013,0.723073706 L44.4313573,0.723073706 C46.2910155,0.723073706 46.7041754,0.723073706 47.1173353,0.103772437 L47.7375138,0.103772437 L47.2208446,4.75291794 Z" id="Fill-5" fill="#BABDC2"></path>
                    <g id="Group-9" transform="translate(18.421143, 0.131755)">
                        <mask id="mask-2" fill="white">
                            <use xlink:href="#path-1"></use>
                        </mask>
                        <g id="Clip-8"></g>
                        <path d="M6.89415647,22.8072166 C5.44765818,22.8072166 4.31081052,22.6010753 3.4844907,22.2905474 C2.65729368,22.0844061 2.03799241,21.7738782 1.72746458,21.5668597 C1.31430466,21.9808968 1.00465403,22.4966888 1.00465403,22.4966888 L0.384475562,22.2905474 L0.901144751,17.4343834 L1.6248325,17.5370155 C2.03799241,19.8107108 3.58712278,21.4642276 6.79064719,21.4642276 C9.27048386,21.4642276 10.9240007,19.3966737 10.9240007,17.1238555 C10.9240007,15.2641973 10.2011902,14.3343682 7.72047629,12.47471 C6.89415647,11.9580408 6.17134592,11.5440037 5.55116746,11.0273345 C3.27747214,9.58083625 1.83185105,7.92819661 1.83185105,5.24134138 C1.83185105,2.14132625 4.4143198,0.0746494873 7.82486277,0.0746494873 C9.78715305,0.0746494873 11.02751,0.694827954 11.4406699,0.900969312 L12.1643576,0.0746494873 L12.6801496,0.178158765 L12.1643576,4.62116292 L11.4406699,4.51765364 C11.4406699,2.45097688 10.2011902,1.52114778 8.1345134,1.52114778 C6.17134592,1.52114778 4.72397043,2.55448616 4.72397043,4.51765364 C4.72397043,6.27467976 6.06783665,7.41152742 7.61784421,8.4448658 C8.44416404,8.96065779 9.0643425,9.3746949 9.68364377,9.78785481 C13.3003281,12.3712008 14.1275251,14.0238404 14.1275251,16.5036771 C14.1275251,20.1203614 11.3371606,22.8072166 6.89415647,22.8072166" id="Fill-7" fill="#BABDC2" mask="url(#mask-2)"></path>
                    </g>
                    <path d="M13.5361187,4.75291794 L12.7097989,4.75291794 C12.7097989,2.89325974 11.8826019,2.17044919 10.229085,2.17044919 L5.57993953,2.17044919 L5.57993953,10.3327698 L8.57644539,10.3327698 C10.126453,10.3327698 10.4361036,9.50644993 10.6431221,8.16258372 L11.3659327,8.16258372 L11.3659327,13.9494541 L10.6431221,13.9494541 C10.4361036,12.3994465 10.126453,11.779268 8.47293611,11.779268 L5.57993953,11.779268 L5.57993953,18.7021089 C5.57993953,21.2854548 6.1992408,21.5959826 7.85275764,21.5959826 L7.85275764,22.4223025 L8.77197266e-05,22.4223025 L8.77197266e-05,21.5959826 C1.9632552,21.5959826 2.27290583,21.0793135 2.27290583,18.7021089 L2.27290583,3.51343821 C2.27290583,2.06606272 1.65360457,1.44676145 8.77197266e-05,1.44676145 L8.77197266e-05,0.723073706 L10.7457542,0.723073706 C12.6054124,0.723073706 13.0194495,0.620441626 13.3291002,0.00026315918 L14.0527879,0.00026315918 L13.5361187,4.75291794 Z" id="Fill-10" fill="#BABDC2"></path>
                    <path d="M112.110723,4.95984878 L109.217726,14.3625263 L115.210738,14.3625263 L112.110723,4.95984878 Z M125.027453,5.99318716 L125.027453,18.3923705 C125.027453,21.0792257 125.647631,21.5958949 127.300271,21.5958949 L127.300271,22.4222147 L115.107229,22.4222147 L115.107229,21.5958949 C116.037935,21.5958949 116.864255,21.2853671 116.864255,20.6651886 C116.864255,20.2529059 116.760746,19.528341 116.553727,18.8055304 L115.623898,15.8090246 L108.804566,15.8090246 C108.701057,16.2221845 107.461577,19.6327274 107.461577,20.5625565 C107.461577,21.3888764 108.391406,21.5958949 109.011585,21.5958949 L109.011585,22.4222147 L103.328224,22.4222147 L103.328224,21.5958949 C104.361562,21.5958949 105.187882,21.4923856 105.91157,19.3221996 L111.180894,2.48001211 C110.871243,1.75632437 110.458083,1.55018301 109.734395,1.44667373 L109.734395,0.722985986 L114.384418,0.722985986 L119.96427,18.3923705 C120.480939,20.2529059 120.997608,21.1818578 121.823928,21.5958949 C123.063408,21.1818578 123.373936,20.7686979 123.373936,18.3923705 L123.373936,3.51335049 C122.443229,2.27299355 122.340597,1.44667373 120.583571,1.44667373 L120.583571,0.722985986 L125.853772,0.722985986 L134.533639,15.4993739 L134.533639,4.23616104 C134.533639,1.96334292 134.01697,1.44667373 132.260821,1.44667373 L132.260821,0.722985986 L143.832808,0.722985986 L143.832808,1.44667373 C143.109997,1.44667373 142.489819,1.75632437 142.489819,2.48001211 C142.489819,2.9966813 142.69596,3.51335049 142.902978,4.13352896 L146.209135,11.2633883 L149.412659,4.33967031 C149.928451,3.40984121 150.031961,2.89317202 150.031961,2.37650283 C150.031961,1.75632437 149.619678,1.44667373 148.688972,1.44667373 L148.688972,0.722985986 L154.165314,0.722985986 L154.165314,1.44667373 C152.822325,1.44667373 151.996005,2.68615347 151.375827,4.13352896 L147.139841,12.8125187 L147.139841,18.4958798 C147.139841,20.9757165 147.76002,21.5958949 149.412659,21.5958949 L149.412659,22.4222147 L141.559112,22.4222147 L141.559112,21.5958949 C143.212629,21.5958949 143.832808,20.9757165 143.832808,18.4958798 L143.832808,13.6397157 L139.286294,4.02914248 C138.459974,2.17036147 138.150324,1.75632437 137.633654,1.44667373 C136.600316,1.85983364 136.289788,2.58352139 136.289788,4.23616104 L136.289788,20.1485194 C136.289788,20.1485194 136.393298,21.3888764 136.496807,22.8353747 L135.153818,22.9388839 L125.027453,5.99318716 Z" id="Fill-12" fill="#BABDC2"></path>
                    <path d="M98.2649535,2.17018604 L97.7482843,2.17018604 L97.7482843,12.8123433 L98.6789906,12.8123433 C102.087779,12.8123433 103.844805,11.2632129 103.844805,7.33600073 C103.844805,3.40966577 102.294798,2.17018604 98.2649535,2.17018604 M99.2982919,14.3623508 L97.7482843,14.3623508 L97.7482843,18.805355 C97.7482843,21.0790503 98.3684628,21.5957195 100.125489,21.5957195 L100.125489,22.4220393 L92.1693097,22.4220393 L92.1693097,21.5957195 C93.8228265,21.5957195 94.4421278,20.975541 94.4421278,18.7018457 L94.4421278,4.13335352 C94.4421278,1.8596582 93.8228265,1.44649829 92.1693097,1.44649829 L92.1693097,0.723687744 L98.1623214,0.723687744 C103.948315,0.723687744 107.35798,2.47983667 107.35798,7.23249146 C107.35798,12.1921648 103.224627,14.3623508 99.2982919,14.3623508" id="Fill-14" fill="#BABDC2"></path>
                    <path d="M63.2365368,5.88967788 C60.5496816,5.88967788 59.6198525,8.47302383 59.6198525,11.4695297 C59.6198525,14.2598942 60.4470495,17.0493815 63.2365368,17.0493815 C65.9233921,17.0493815 66.7497119,14.2598942 66.7497119,11.3660204 C66.7497119,8.57653311 65.7172507,5.88967788 63.2365368,5.88967788 M63.2365368,18.2888612 C59.3102019,18.2888612 56.6233467,15.4993739 56.6233467,11.4695297 C56.6233467,7.64582681 59.4137112,4.64932095 63.2365368,4.64932095 C66.9567304,4.64932095 69.7462177,7.54319473 69.7462177,11.4695297 C69.7462177,15.2923554 66.8532212,18.2888612 63.2365368,18.2888612" id="Fill-16" fill="#BABDC2"></path>
                    <path d="M16.3257815,7.02599922 L14.7757739,12.0891818 L17.9792983,12.0891818 L16.3257815,7.02599922 Z M17.7722798,17.0497324 L17.7722798,16.3260446 C18.8056181,16.3260446 19.0126367,16.0155168 19.0126367,15.7067434 C19.0126367,15.2927063 18.9091274,14.9821784 18.8056181,14.6725278 C18.8056181,14.6725278 18.5994768,13.8453308 18.3924582,13.2251523 L14.362614,13.2251523 L13.9494541,14.5698957 C13.8459448,14.8786691 13.7424355,15.189197 13.7424355,15.6023569 C13.7424355,16.0155168 14.1555954,16.3260446 14.7757739,16.3260446 L14.7757739,17.0497324 L10.7459297,17.0497324 L10.7459297,16.3260446 C11.779268,16.3260446 12.1933052,16.0155168 12.6055879,14.8786691 L15.705603,5.58037813 C15.6029709,5.16634102 15.2924431,4.85669038 14.6722646,4.85669038 L14.6722646,4.13300264 L17.9792983,4.13300264 C20.6652763,11.9856726 21.3889641,14.0532265 21.3889641,14.0532265 C21.9056333,15.8093754 22.4223025,16.3260446 23.2494995,16.3260446 L23.2494995,17.0497324 L17.7722798,17.0497324 Z" id="Fill-18" fill="#BABDC2"></path>
                </g>
            </g>
        </g>
    </g>
</svg>