<?xml version="1.0" encoding="UTF-8"?>
<svg width="82px" height="48px" viewBox="0 0 82 48" version="1.1" xmlns="http://www.w3.org/2000/svg" xmlns:xlink="http://www.w3.org/1999/xlink">
    <!-- Generator: Sketch 49.3 (51167) - http://www.bohemiancoding.com/sketch -->
    <title>Page 1</title>
    <desc>Created with Sketch.</desc>
    <defs></defs>
    <g id="02-Homepage" stroke="none" stroke-width="1" fill="none" fill-rule="evenodd">
        <g id="Homepage-Wireframe" transform="translate(-273.000000, -706.000000)" fill="#BABDC2">
            <g id="Group-2" transform="translate(273.000000, 706.000000)">
                <g id="Page-1">
                    <path d="M0,16.6629092 C1.15051859,16.6519808 2.30103719,16.646213 3.45155578,16.6264812 C3.78699722,16.6207134 3.81462181,16.7816038 3.73205161,17.0375108 C3.06663294,17.2129724 2.9421705,17.3362206 3.05904376,17.9834252 C3.5623577,20.7719909 4.0926891,23.5563066 4.63789527,26.4741918 C4.71530483,26.2759626 4.75932203,26.1997673 4.77480395,26.1181078 C5.06865672,24.5404705 5.44052618,22.9713332 5.61689856,21.380339 C5.7091829,20.5522084 5.46541867,19.6840071 5.35279535,18.8364483 C5.30392107,18.4697394 5.2596003,18.0839059 5.10872755,17.7545358 C4.98972932,17.4952897 4.71135846,17.3095067 4.50280799,17.0915457 C4.40354161,16.9880293 4.30215027,16.886638 4.20197318,16.7843359 C4.22990134,16.7339438 4.2578295,16.6832482 4.28575765,16.6328561 C5.43111561,16.6328561 6.57647356,16.6261776 7.72122439,16.6459094 C7.81047306,16.6477308 7.89638249,16.8356388 8.01022009,16.9682975 C6.97080698,17.2988819 6.91798634,17.3729522 7.10741209,18.3637946 C7.58644068,20.8685252 8.07518341,23.3720415 8.56210473,25.8752542 C8.58760435,26.0060916 8.63435366,26.1329825 8.74788768,26.2720162 C8.87720718,25.5990083 9.01138376,24.9266076 9.13554263,24.2526891 C9.49375158,22.3092537 9.84346066,20.3636934 10.2065267,18.4211687 C10.3886668,17.4448975 10.2387048,17.2053833 9.28307614,17.0366001 C9.20050594,16.7816038 9.2275234,16.6213205 9.5623577,16.6261776 C10.3747028,16.6377131 11.1876549,16.6395345 12,16.6255705 C12.3290665,16.6198027 12.3624589,16.7715861 12.3038705,17.0238502 C11.3360992,17.2035619 11.172173,17.356256 10.9645333,18.3458841 C10.1530989,22.2133266 9.34803946,26.0819833 8.54024791,29.9503365 C8.50230205,30.1318695 8.46040982,30.3121882 8.42216038,30.4858285 C7.71211738,30.631237 7.69967114,30.6309335 7.5688338,29.9770503 C7.10862636,27.6747989 6.65570453,25.3713332 6.19792563,23.0687781 C6.17333671,22.9452264 6.13205161,22.8250139 6.01608905,22.7093549 C5.49000759,25.3009056 4.96392613,27.8927599 4.4311662,30.5170959 L3.68651657,30.5170959 C3.40723501,29.1206881 3.12491778,27.7188161 2.84654693,26.3157298 C2.29800152,23.549021 1.75522388,20.7810979 1.20212497,18.0152998 C1.05428788,17.2742929 0.841183911,17.1197774 0,17.0693853 L0,16.6629092 Z" id="Fill-4"></path>
                    <path d="M45.2166557,0.303506198 C45.2072451,0.453164685 45.1978346,0.602823172 45.1859954,0.786177587 C45.0721579,0.799230964 44.9607488,0.813195042 44.8487326,0.824123451 C44.3126334,0.876336959 44.0922439,1.09581584 44.0846547,1.63495067 C44.0734227,2.43029598 44.0810119,3.22594485 44.0810119,4.02129016 C44.0807083,6.86480142 44.0807083,9.70831267 44.0810119,12.5521275 C44.0810119,13.5523805 44.1632785,13.6440577 45.1592816,13.749699 C45.2861725,14.0775512 45.1671743,14.1916924 44.8214116,14.1883531 C43.7045889,14.1774247 42.5871591,14.1777283 41.4703365,14.1883531 C41.1588768,14.1916924 41.0222717,14.0972831 41.125788,13.7439312 C41.2493397,13.7336099 41.3798735,13.7241993 41.5098002,13.7114495 C41.9214369,13.6713787 42.1837187,13.4555426 42.1861472,13.0335846 C42.1961649,11.1900228 42.1903972,9.34646092 42.1903972,7.46100683 L39.1431925,7.46100683 C39.1362105,7.62098659 39.1216393,7.79918037 39.1213357,7.97707058 C39.1198179,9.50067291 39.1201214,11.0236681 39.120425,12.5472704 C39.1207286,13.5277916 39.2300126,13.6504326 40.2023375,13.7484847 C40.3219428,14.0714799 40.2163015,14.1929067 39.8644675,14.1889603 C38.7473413,14.1762105 37.630215,14.1774247 36.5130888,14.1880496 C36.1913079,14.1910853 36.0753453,14.0796762 36.1779509,13.7688237 C37.1973286,13.5924513 37.2732203,13.5022919 37.2735239,12.4659145 C37.2735239,8.97944852 37.2738275,5.49267898 37.2732203,2.00590944 C37.2732203,1.04360233 37.1432937,0.896675942 36.1733974,0.784052618 L36.1733974,0.303506198 L40.2378548,0.303506198 L40.2378548,0.784963319 C39.2324412,0.892729572 39.120425,1.01840627 39.120425,1.99346319 C39.1201214,3.37894258 39.120425,4.76411839 39.120425,6.14990134 L39.120425,6.6787149 L42.1925221,6.6787149 C42.1925221,4.93988363 42.1970756,3.23626613 42.1891829,1.53264862 C42.1873615,1.08215533 41.9080799,0.871783456 41.4827827,0.825337718 C41.3543739,0.81137364 41.2259651,0.798016696 41.0647711,0.781016949 C41.098467,0.596448267 41.1254844,0.449825449 41.1521983,0.303506198 L45.2166557,0.303506198 Z" id="Fill-6"></path>
                    <path d="M52.7358563,0.303506198 L52.7358563,5.00909689 C52.4174146,5.16027321 52.3503263,5.04006071 52.3233089,4.75106501 C52.2619884,4.09748545 52.2237389,3.43085252 52.0592057,2.80034404 C51.7009967,1.43004301 50.9748647,0.91458639 49.5681356,0.913979256 C49.2991753,0.913979256 49.030215,0.913979256 48.7202732,0.913979256 L48.7202732,6.64926891 C49.3908525,6.78162408 49.8331495,6.59826967 50.0404857,5.96745763 C50.2062332,5.46292942 50.2548039,4.91438401 50.3106603,4.38101695 C50.3425348,4.08018214 50.4345156,3.97970149 50.7411181,4.10021756 L50.7411181,9.91838098 C50.4451404,10.0404149 50.3422312,9.95966608 50.3100531,9.65033139 C50.2545004,9.11666076 50.205019,8.56932962 50.0407893,8.06358715 C49.8349709,7.43156084 49.3993524,7.24608146 48.7044877,7.37145459 L48.7044877,13.5393271 C50.6202985,13.9030003 51.7790134,13.2697597 52.2188819,10.9410979 C52.2908272,10.5610321 52.2780774,10.1654844 52.3406122,9.7832937 C52.3612547,9.65792057 52.4966456,9.55167215 52.5795194,9.43662029 L52.7428384,9.51585125 L52.7428384,11.8399595 L52.7428384,14.1516216 L45.7474424,14.1516216 L45.7474424,13.765788 C45.790549,13.7469669 45.8196914,13.7238958 45.8497445,13.7226815 C46.6593575,13.6859499 46.8360334,13.4992563 46.836337,12.6626259 C46.8375512,9.73441943 46.8369441,6.80682014 46.8369441,3.87861371 C46.8369441,3.25235517 46.8369441,2.62609664 46.8366405,2.00014166 C46.836337,1.02538831 46.7179459,0.890604604 45.7246749,0.785266886 L45.7246749,0.303506198 L52.7358563,0.303506198 Z" id="Fill-9"></path>
                    <path d="M35.8684948,0.303506198 L35.8684948,5.03611434 C35.5840526,5.1493448 35.4856969,5.10320263 35.435912,4.79083228 C35.3065925,3.97757652 35.1545054,3.16462434 34.9495978,2.36745763 C34.864599,2.03626613 34.646638,1.72784215 34.4444624,1.44066785 C34.1493954,1.02113838 33.7359373,0.825034151 33.1278927,0.958300025 L33.1278927,1.52202378 L33.1278927,12.3878978 C33.1278927,13.5687731 33.1643208,13.6118796 34.310893,13.7606274 L34.310893,14.1816747 C32.9715558,14.1816747 31.6537718,14.1886567 30.3368986,14.1680142 C30.2333822,14.1664963 30.132598,13.9713028 29.9358867,13.7682165 C30.2400607,13.7390741 30.3693802,13.718128 30.4993069,13.7153959 C30.9977637,13.7041639 31.2278674,13.4224538 31.2788667,12.9555679 C31.2843309,12.9051758 31.2831166,12.8541766 31.2831166,12.8031773 C31.2831166,8.94453833 31.2834202,5.08559575 31.2822059,1.22665317 C31.2822059,1.14469011 31.2682418,1.06272704 31.2591348,0.966192765 C30.6647508,0.799230964 30.2600961,1.06211991 29.9401366,1.49318492 C29.3551632,2.28033392 29.1657374,3.20499874 29.0619175,4.15364533 C29.0379357,4.37160637 29.0652568,4.60079939 29.0094005,4.80904629 C28.9750974,4.93684796 28.8269567,5.03398938 28.6542272,5.231915 L28.6542272,0.303506198 L35.8684948,0.303506198 Z" id="Fill-15"></path>
                    <path d="M81.2883582,21.3367771 L80.956256,21.3367771 C80.792937,20.4995396 80.6854743,19.6944801 80.4666026,18.9206881 C80.3372831,18.462302 80.0698406,18.0282014 79.7960233,17.6302251 C79.5182595,17.2270883 79.0923552,17.0765191 78.5438098,17.2252669 L78.5438098,17.7695624 L78.5438098,28.6867392 C78.5438098,29.8257222 78.5866127,29.8749001 79.7301493,30.0166658 C79.7350063,30.0713079 79.7465419,30.1341462 79.7444169,30.196681 C79.7416848,30.2610372 79.7255958,30.3247862 79.7076853,30.4361953 C78.3810979,30.4361953 77.0639211,30.4431773 75.7473514,30.4225348 C75.6462636,30.4207134 75.5482115,30.2227878 75.3675892,30.0294156 C75.6435315,29.9972375 75.7564584,29.9796307 75.8699924,29.9720415 C76.4124665,29.9362206 76.6352846,29.729188 76.6902302,29.2018922 C76.6972122,29.1348039 76.6950873,29.066805 76.6950873,28.9991095 C76.6953908,25.1905591 76.6956944,21.3823122 76.6941766,17.5737617 C76.6941766,17.4587098 76.6750519,17.343658 76.6641235,17.2194991 C76.0922034,17.0643764 75.6945307,17.3041943 75.3766962,17.7203845 C74.7795801,18.5017657 74.5886365,19.4252163 74.4802631,20.3732558 C74.4532456,20.6088237 74.4790488,20.8544093 74.4201568,21.0793524 C74.3879788,21.2026006 74.2289097,21.2924564 74.1269112,21.3971869 C74.092001,21.363491 74.0570908,21.3297951 74.0221806,21.2960992 L74.0221806,16.6724715 C74.1584822,16.6563825 74.2720162,16.6311864 74.3855502,16.6311864 C76.5858032,16.6287579 78.7863597,16.6290615 80.9866127,16.6308829 C81.0870933,16.6311864 81.1878776,16.6515254 81.2883582,16.663061 L81.2883582,21.3367771 Z" id="Fill-18"></path>
                    <path d="M16.5624892,47.3492436 C14.9028889,46.7065925 14.1888996,45.6107159 14.4089856,44.0449178 C14.5085555,43.3345712 14.9402277,42.8837743 15.5252011,42.8780066 C16.0039261,42.8737566 16.3302606,43.1575917 16.4301341,43.6654591 C16.5582393,44.318128 16.2404048,44.8615128 15.5922894,45.0937415 C15.5163977,45.1210625 15.436256,45.1371515 15.3676499,45.1553655 C15.324847,46.1890109 16.2583152,46.9567316 17.2106046,46.7047711 C17.6562408,46.5869871 17.8939337,46.2685454 17.9695219,45.8432482 C18.0372173,45.4625753 18.0754667,45.0712775 18.0763774,44.6845333 C18.0845737,41.4521528 18.0812345,38.2197723 18.0809309,34.9870883 C18.0806274,34.0554414 17.9452365,33.9069972 17.0178396,33.8210878 C16.8958057,33.5269314 16.9680546,33.3936656 17.3132102,33.3973084 C18.4470326,33.4082368 19.5811586,33.4088439 20.714981,33.3970048 C21.0440476,33.393362 21.0780471,33.5424134 21.0118695,33.7961953 C20.014045,33.9552644 19.9214571,34.0636377 19.9214571,35.0666228 C19.9211536,38.0789173 19.9217607,41.0915153 19.9211536,44.1038098 C19.92085,46.1589578 19.3091627,46.903911 17.3110853,47.2888338 C17.2628181,47.2979408 17.2184973,47.3286011 17.1720516,47.3492436 L16.5624892,47.3492436 Z" id="Fill-20"></path>
                    <path d="M73.3286213,21.2828029 C73.0314293,21.4112117 72.9576625,21.298892 72.9315558,21.0059499 C72.8763066,20.3845484 72.8316823,19.7531293 72.6814166,19.1511561 C72.315315,17.6864457 71.6113433,17.1712927 70.1092942,17.1712927 L69.3239666,17.1712927 L69.3239666,22.9184215 C70.0388667,23.0204199 70.4338072,22.8455654 70.6438755,22.1986643 C70.8078017,21.6926183 70.8263193,21.1407336 70.9359069,20.6149557 C70.9629244,20.4856362 71.0937617,20.3781735 71.176939,20.2603896 C71.2233848,20.2867999 71.2701341,20.3135138 71.3168834,20.3399241 L71.3168834,26.1893549 C71.0533873,26.2773893 70.9425854,26.2242651 70.9183,25.9115912 C70.8806577,25.4255806 70.8323906,24.9307665 70.6997318,24.4647913 C70.5018062,23.7696231 70.1044371,23.5422515 69.3285201,23.5905186 L69.3285201,29.8048368 C71.052173,30.0938325 72.0430154,29.7004098 72.6197926,27.9652214 C72.819236,27.364766 72.8593069,26.7066329 72.9303415,26.0703567 C72.962216,25.7859145 73.0317329,25.674809 73.3352998,25.7710397 L73.3352998,30.388596 C73.211748,30.4052922 73.0848571,30.436256 72.9579661,30.4365596 C70.8921933,30.4395952 68.8258133,30.4359524 66.7600405,30.4417202 C66.465277,30.4426309 66.2379054,30.4177384 66.3596357,30.0309942 C67.3823526,29.832765 67.436084,29.7674981 67.436084,28.7156388 C67.4363876,25.2273514 67.4366911,21.7387604 67.436084,18.2504731 C67.4357804,17.2836124 67.3152644,17.1509537 66.3493144,17.0462231 C66.2533873,16.7966911 66.2658335,16.6269972 66.6061321,16.6282115 C68.8075993,16.6354971 71.008763,16.6376221 73.2099266,16.6433898 C73.2402833,16.6433898 73.27064,16.6655502 73.3286213,16.6883177 L73.3286213,21.2828029 Z" id="Fill-26"></path>
                    <path d="M61.7309689,17.171323 L61.7309689,22.9014521 C62.4115659,23.0383607 62.8575057,22.8495421 63.0666633,22.2193372 C63.2345358,21.7142019 63.2755173,21.1653529 63.3605161,20.6341108 C63.4096939,20.3269011 63.3990691,20.3253833 63.7682064,20.3651505 L63.7682064,26.1842246 C63.7257071,26.2136706 63.6829041,26.2431166 63.6401012,26.2725626 C63.5481204,26.1605464 63.4008905,26.0606729 63.373873,25.9346926 C63.2606425,25.4092183 63.2403036,24.8573337 63.0785024,24.3494662 C62.8760233,23.7141007 62.46894,23.5246749 61.7403795,23.6081558 L61.7403795,29.8112421 C63.5578346,30.1712725 64.6858892,29.481872 65.1230256,27.7123805 C65.2556843,27.1759777 65.263577,26.6098254 65.35404,26.06128 C65.3762004,25.927407 65.4985378,25.8099266 65.5750367,25.6848571 C65.6254288,25.7085353 65.6761245,25.7322135 65.7265166,25.7561953 L65.7265166,30.3871085 C65.6214824,30.4038047 65.5106805,30.4359828 65.3998786,30.4359828 C63.3183203,30.439322 61.2364584,30.4353757 59.1549001,30.4423577 C58.8525474,30.4432684 58.6430863,30.4035011 58.7793878,29.9945965 C58.8819934,29.9870073 58.995831,29.9797217 59.1096686,29.9700076 C59.6108576,29.9272047 59.8455148,29.7034758 59.8464255,29.1898406 C59.853104,25.4155932 59.8543182,21.6416494 59.8458184,17.8670984 C59.8446041,17.2772679 59.6075183,17.114556 58.612426,17.048682 C58.7915305,16.8547028 58.8947432,16.6458487 58.9994738,16.644938 C61.230387,16.6261169 63.4613003,16.6306704 65.7265166,16.6306704 L65.7265166,21.2940653 C65.4645383,21.3878674 65.3555578,21.3216899 65.3394688,21.0135694 C65.3109335,20.4750417 65.2918088,19.927407 65.1776676,19.4037541 C64.8106552,17.7171364 64.1060764,17.1704123 62.3954769,17.171323 L61.7309689,17.171323 Z" id="Fill-28"></path>
                    <path d="M44.7798533,33.8055452 C44.6860511,33.5490311 44.7236934,33.3948191 45.0512421,33.3990691 C45.6945004,33.4072654 46.3389729,33.4221401 46.9807134,33.3923906 C47.3170655,33.3769087 47.4448672,33.5201923 47.5571869,33.8076701 C48.5950822,36.4660056 49.646638,39.1188768 50.6951581,41.7729623 C50.7528358,41.9195851 50.819317,42.0628687 50.9777789,42.1912775 C50.9835467,42.0662079 50.9941715,41.9414419 50.9941715,41.8166759 C50.9950822,39.5651202 50.9966001,37.3132608 50.9935644,35.061705 C50.9923501,34.1749861 50.7622464,33.9187756 49.8831166,33.8134379 C49.7537971,33.5092639 49.8570099,33.3926942 50.1869871,33.3975512 C50.914637,33.4087832 51.642894,33.4084796 52.3705439,33.3978548 C52.6643967,33.3936049 52.7821806,33.4904427 52.6835214,33.7827776 C51.6938932,33.9934531 51.5457526,34.1786289 51.545449,35.215917 C51.5445383,39.0083784 51.5451455,42.8008399 51.5451455,46.5929977 L51.5451455,47.1882924 C51.0894915,47.361022 50.8836732,47.20681 50.7233898,46.7969947 C49.4304984,43.4950974 48.1175715,40.2010928 46.8095016,36.9055705 C46.7503061,36.7562155 46.67745,36.6120212 46.5487377,36.3287933 C46.529613,36.5856109 46.5147382,36.6930736 46.5144346,36.8002327 C46.5132203,39.7123501 46.5113989,42.6244675 46.5150417,45.5362813 C46.516256,46.4688389 46.6892891,46.6597824 47.6154718,46.7830306 L47.6154718,47.208935 C46.7366456,47.208935 45.8757298,47.2207741 45.0160283,47.1946673 C44.90128,47.1916317 44.7926031,46.9964381 44.6183557,46.830387 C45.8320162,46.5890514 45.9303719,46.4691424 45.9306754,45.3659803 C45.930979,41.9629952 45.930979,38.5600101 45.9306754,35.157025 C45.9306754,34.0183456 45.8699621,33.9473109 44.7798533,33.8055452" id="Fill-30"></path>
                    <path d="M49.7863091,16.6703162 L49.7863091,17.1669517 L49.7863091,21.2611586 C49.4827422,21.444513 49.4095826,21.3467645 49.3607083,21.045019 C49.2289603,20.2317632 49.086891,19.4163825 48.8743941,18.6216443 C48.7778599,18.2600961 48.5356135,17.923744 48.3061169,17.6159271 C48.0216747,17.2349507 47.6136807,17.0907564 47.0514748,17.2173438 L47.0514748,17.780764 C47.0514748,21.4554414 47.0514748,25.1298153 47.0514748,28.8044928 C47.0514748,29.7932102 47.1874728,29.9346724 48.2208146,29.9899216 L48.2208146,30.4373792 C46.9009056,30.4373792 45.5992107,30.4449684 44.2978194,30.4237187 C44.187321,30.4215937 44.0798583,30.2239717 43.9708778,30.1177232 C44.0000202,30.077956 44.0291627,30.0381887 44.0583051,29.9984215 C44.1557501,29.989618 44.2528915,29.9774753 44.35064,29.9720111 C44.9608095,29.9389223 45.1960739,29.7073008 45.2054844,29.0840779 C45.2173236,28.2881255 45.2088237,27.492173 45.2088237,26.6962206 C45.2088237,23.733104 45.2088237,20.7696838 45.2085201,17.8062636 L45.2085201,17.23404 C44.6068505,17.050382 44.2034101,17.3075032 43.8795042,17.7364432 C43.2766203,18.5360385 43.0893195,19.4789173 42.9854996,20.4448672 C42.9548394,20.7290058 42.9563572,21.0164837 42.9436074,21.2942474 C42.6336656,21.4256919 42.5207387,21.3416038 42.5225601,21.0265014 C42.53106,19.5882014 42.5262029,18.1499013 42.5262029,16.6703162 L49.7863091,16.6703162 Z" id="Fill-32"></path>
                    <path d="M41.0237895,17.2777536 C41.2317329,17.0206324 41.3999089,16.8129927 41.568085,16.6050493 C41.622727,16.6326739 41.676762,16.6599949 41.731404,16.6876195 L41.731404,17.8335846 C41.731404,18.9170149 41.7374753,20.0010524 41.7207792,21.0841791 C41.7195649,21.1852669 41.5756742,21.2842297 41.497961,21.3841032 C41.434212,21.2887832 41.3279636,21.1995345 41.3130888,21.0969289 C41.2138224,20.4126891 41.1780015,19.716003 41.0319858,19.0429952 C40.9451657,18.6422869 40.7417759,18.2455249 40.5092436,17.9024943 C40.0138224,17.1721123 39.1146572,16.8985985 38.364847,17.1878978 C37.7340349,17.431662 37.3667189,18.1817759 37.4362358,19.055745 C37.4878421,19.7041639 37.7058032,20.2882267 38.1696534,20.7405414 C38.6769137,21.2353554 39.2114951,21.7061877 39.7652011,22.1487883 C40.9655047,23.107149 42.0452922,24.1659904 42.2978599,25.754556 C42.423233,26.5423122 42.457536,27.3828889 42.3266987,28.1648773 C42.0604705,29.753443 40.6522236,30.7366962 38.9986947,30.5211637 C38.2500987,30.4237187 37.5288237,30.1174197 36.738639,29.8894409 C36.6591045,30.0063142 36.496089,30.2455249 36.3333772,30.4847356 C36.28511,30.4616646 36.2371465,30.4385935 36.1891829,30.4152188 L36.1891829,25.784002 C36.5440526,25.7299671 36.5136959,25.7348242 36.5710701,26.0896939 C36.6912826,26.8349507 36.7732456,27.5990286 37.0079029,28.3102859 C37.2659347,29.0913635 37.82723,29.6620693 38.6608247,29.8988515 C39.8013256,30.223061 40.7927751,29.5709992 40.9491121,28.4022666 C41.1136453,27.1694814 40.8037035,26.0739084 39.9476448,25.1750468 C39.4482773,24.6507867 38.8897141,24.1775259 38.3247761,23.721872 C37.289613,22.887063 36.3710195,21.9636124 36.1378801,20.5960435 C36.0373994,20.0068201 36.0131141,19.3672047 36.1293802,18.7855705 C36.5428384,16.7149406 38.8217152,15.8251859 40.6145813,16.9905793 C40.7542221,17.0810422 40.8871844,17.1815229 41.0237895,17.2777536" id="Fill-34"></path>
                    <path d="M32.1281558,25.7850342 C32.1281558,27.2394232 32.128763,28.6938123 32.126638,30.1482014 C32.1263344,30.2286466 32.1035669,30.3087883 32.0838351,30.4387149 L31.216848,30.4387149 C29.3541614,30.4387149 27.4914748,30.4359828 25.6287883,30.441447 C25.3407033,30.4423577 25.0993676,30.4317329 25.2180622,30.0319352 C25.2396155,30.0179712 25.2663294,29.9857931 25.2954718,29.9839717 C26.3728308,29.9105085 26.4314192,29.8488844 26.4314192,28.7775968 C26.4317227,25.2556135 26.4317227,21.7333266 26.4314192,18.2113433 C26.4314192,17.2535897 26.3096888,17.1203238 25.3546673,17.0605211 C25.255401,16.8073463 25.2390083,16.6252062 25.6160385,16.6276347 C26.7674677,16.6343132 27.9192006,16.6355274 29.0706299,16.6270276 C29.4333924,16.6239919 29.3860359,16.8207033 29.3380724,17.0468606 C28.4030863,17.1458234 28.2716418,17.2936605 28.2713382,18.2332001 C28.2707311,21.9081811 28.2710347,25.582555 28.2710347,29.2572325 L28.2710347,29.7933316 C30.128257,30.2262181 31.2936504,29.3558917 31.5929674,27.3450645 C31.6576271,26.9112674 31.6564129,26.4680597 31.7198583,26.033959 C31.7386795,25.9034252 31.8725525,25.7895877 31.9536049,25.6678573 C32.0118897,25.7067139 32.069871,25.745874 32.1281558,25.7850342" id="Fill-36"></path>
                    <g id="Group-40" transform="translate(28.231723, 33.385075)">
                        <path d="M11.1928459,6.42569188 L11.1928459,0.629992411 C12.2978295,0.358603592 13.2179408,0.863435366 13.5072401,1.94899064 C13.7819681,2.98020744 13.7664862,4.03024538 13.4714192,5.05660511 C13.1620845,6.13366051 12.5388616,6.50128004 11.1928459,6.42569188 M16.3689653,11.3164584 L15.8790083,11.3164584 C15.8790083,11.6825601 15.886294,12.0186087 15.8768834,12.3537465 C15.8686871,12.6366709 15.8152593,12.9678624 15.4619074,12.9095775 C15.3052669,12.8840779 15.1762509,12.5674576 15.0769846,12.36255 C15.0229497,12.2505338 15.0602884,12.0960182 15.0526992,11.9606274 C14.9965393,10.9637136 14.9598077,9.9649785 14.876934,8.9704933 C14.7919352,7.94747281 14.1787301,7.31939287 13.2516367,6.96421958 C13.091657,6.90320263 12.924088,6.86161396 12.6754667,6.78481154 C13.048854,6.65427776 13.3378497,6.56836833 13.6150063,6.45362004 C15.181108,5.80611181 15.8680799,4.4191146 15.5611738,2.54185682 C15.3347129,1.15728814 14.1826764,0.106035922 12.6293246,0.058375917 C10.3282874,-0.0114444726 8.02421452,0.027715659 5.7216595,0.0143587149 C5.38348596,0.0122337465 5.36527195,0.174338477 5.45785985,0.42569188 C6.31786491,0.531333165 6.50395143,0.743222869 6.50486213,1.64633443 C6.5069871,4.72814571 6.51396914,7.81056413 6.49636226,10.8923754 C6.49393372,11.3422616 6.41743486,11.8067189 6.28750822,12.237784 C6.07167215,12.9535947 5.52009107,13.3363926 4.81854794,13.3527852 C4.11609411,13.3694814 3.54903112,13.0161295 3.30982039,12.3030508 C3.1619833,11.8625753 3.07789527,11.3796003 3.0748596,10.9151429 C3.05482418,7.79933215 3.06423476,4.68352138 3.06453833,1.5677106 C3.06484189,0.677045282 3.16380471,0.560779155 4.03929168,0.417495573 C4.12641538,0.155820896 4.08179104,0.00980521123 3.75484948,0.0128408803 C2.62011637,0.0228585884 1.48538325,0.0201264862 0.350953706,0.0143587149 C0.016119403,0.0125373134 -0.00907665065,0.171909942 0.0907968631,0.425388313 C1.10410321,0.546815077 1.175745,0.629688844 1.1766557,1.67365545 C1.1766557,1.77535037 1.1766557,1.87674172 1.1766557,1.97843663 C1.1766557,4.85716165 1.17088793,7.73588667 1.17878067,10.6146117 C1.18363774,12.3607286 2.01510751,13.4778548 3.54295978,13.8293853 C3.75515305,13.877956 3.96886415,13.9195446 4.18196813,13.964169 L4.79183405,13.964169 C4.85406527,13.9389729 4.91417152,13.903152 4.97913483,13.8907058 C6.23165191,13.6514951 6.85851758,12.9942727 7.01758664,11.7198988 C7.06555022,11.334976 7.0877106,10.9439818 7.08831773,10.5554161 C7.0940855,7.66060207 7.09074627,4.76548444 7.09287124,1.87067038 C7.0931748,1.63419175 7.09287124,1.39467746 7.12778143,1.16153807 C7.19365545,0.721366051 7.44075892,0.461209208 7.9115912,0.463334177 C8.11467746,0.464548444 8.31806729,0.458477106 8.52084999,0.465459145 C9.00200354,0.482155325 9.2776423,0.720758917 9.29949911,1.21435871 C9.31012396,1.45083734 9.30982039,1.68822666 9.31012396,1.92500885 C9.31073109,5.31099418 9.31042752,8.69697951 9.31042752,12.0829648 C9.31042752,13.1894662 9.24212497,13.270215 8.17174804,13.3961953 L8.17174804,13.7990286 L12.286294,13.7990286 C12.2947938,13.6630306 12.3032937,13.5282469 12.3142221,13.3527852 C12.1357248,13.3527852 12.003066,13.3536959 11.8707109,13.3524817 C11.4147534,13.349446 11.1737212,13.1114495 11.1722034,12.6636883 C11.1658285,10.8195194 11.1694713,8.97535037 11.1694713,7.13785985 C12.2204199,6.85250696 12.9180167,7.28266127 13.0175866,8.32419934 C13.121103,9.40155831 13.1502454,10.4855958 13.2221907,11.5659904 C13.2431369,11.8853428 13.2798685,12.2065166 13.3420997,12.5204048 C13.4875082,13.2574652 13.8885201,13.7762611 14.6480445,13.964169 L15.155912,13.964169 C16.2736453,13.6053529 16.5450342,12.8433999 16.3689653,11.3164584" id="Fill-38"></path>
                    </g>
                    <path d="M26.1042348,44.5581584 C26.096342,45.0338477 25.94638,45.525019 25.7748647,45.9758158 C25.5781533,46.4924867 25.1513382,46.7571971 24.5760789,46.7386795 C24.0190336,46.7204655 23.6344144,46.4332912 23.4668454,45.9263344 C23.3205262,45.4825196 23.1921174,45.0107766 23.1802783,44.5481407 C23.1438502,43.1274475 23.1669213,41.7055401 23.1669213,40.2839363 L23.1650999,40.2839363 C23.1650999,38.8793322 23.1429395,37.4741209 23.1775462,36.0704275 C23.1887781,35.6065773 23.3089906,35.1351379 23.4458993,34.6873767 C23.6110397,34.1479383 24.0226764,33.8641032 24.5915608,33.8519605 C25.1771414,33.8392107 25.6516165,34.0966355 25.8094713,34.6567164 C25.9907007,35.2993676 26.139145,35.9760182 26.1452163,36.6390083 C26.1695016,39.2785226 26.1485555,41.9189476 26.1042348,44.5581584 M28.0850089,37.8985075 C27.8986188,36.5825449 27.534642,35.317278 26.652173,34.27149 C25.5174399,32.9275993 23.6559676,32.9400455 22.575573,34.3264356 C22.2383101,34.7596256 21.9144042,35.2571718 21.7720314,35.7768783 C21.4751429,36.8615229 21.2149861,37.97106 21.0996307,39.0872755 C20.9020086,41.0033898 21.0814166,42.9058437 21.751996,44.7305844 C22.219489,46.0031369 22.9480496,47.0407286 24.3863496,47.3491525 L24.8945206,47.3491525 C26.3237136,47.0389072 27.0747382,46.0277258 27.5461776,44.7494055 C28.3682368,42.5187959 28.4131647,40.2177587 28.0850089,37.8985075" id="Fill-41"></path>
                    <path d="M54.4950266,43.2368834 C54.839575,41.2017708 55.1771414,39.2058184 55.5150114,37.2098659 L55.6394738,37.2047053 C55.9776474,39.1961042 56.3161245,41.1878067 56.6640121,43.2368834 L54.4950266,43.2368834 Z M66.6862737,42.7417657 C66.685363,42.6558563 66.5478472,42.5711611 66.4734733,42.4852517 C66.4057779,42.5793575 66.2919403,42.6667847 66.2779762,42.7678725 C66.2036023,43.3194536 66.2072451,43.8868201 66.0852112,44.425955 C65.6675032,46.2725525 64.7917126,46.8560081 62.8440273,46.5955477 L62.8440273,46.0582343 C62.8440273,42.3841639 62.8437238,38.7100936 62.8443309,35.0360233 C62.8443309,34.0509486 62.9223476,33.959575 63.8913332,33.7947382 C63.9820997,33.5230458 63.9125828,33.394637 63.5965697,33.3976727 C62.4621401,33.4076904 61.3277106,33.4079939 60.1932811,33.3973691 C59.8429648,33.3940299 59.7831622,33.5357956 59.902464,33.823577 C60.8960385,33.9037187 60.9943941,34.0096635 60.9946977,35.0020238 C60.9950013,38.5910954 60.9965191,42.1807741 60.9934834,45.7701493 C60.9928763,46.5718695 60.5426866,46.932507 59.7886264,46.7178852 C59.301705,46.5794586 59.1326183,46.1587149 59.0436732,45.7139894 C58.4605211,42.7991399 57.8855654,39.882469 57.3057526,36.967316 C57.0595598,35.7305844 56.80851,34.4953706 56.5598887,33.2613711 L55.7217405,33.2613711 C54.9260916,37.3740956 54.1380319,41.436428 53.3563471,45.4999747 C53.1632785,46.5026562 53.0989223,46.5788515 52.0616342,46.8025803 C51.9632785,47.1204149 52.0922945,47.2211991 52.4083076,47.2148242 C53.1359575,47.200253 53.8645181,47.1993423 54.592168,47.2148242 C54.9509841,47.2221098 55.0417506,47.0870225 54.9242702,46.7710094 C54.0293549,46.662636 53.929785,46.5412092 54.0648722,45.6702757 C54.1422818,45.1696939 54.2254591,44.6672907 54.3547786,44.1788515 C54.3905995,44.0437642 54.5952036,43.8689097 54.7321123,43.8601062 C55.2882469,43.8236782 55.8492386,43.8607134 56.406891,43.8379459 C56.70894,43.8254996 56.8315811,43.9487478 56.8755983,44.2277258 C56.9630256,44.7780926 57.0680597,45.3260309 57.1612547,45.875487 C57.2495927,46.3973185 57.0774703,46.6377435 56.5565495,46.726385 C56.4284442,46.7482418 56.2985176,46.7594738 56.1877157,46.7737415 C56.0526284,47.277359 56.3829092,47.2096635 56.6503516,47.2096635 C59.8332507,47.2105742 63.0164533,47.2105742 66.1993524,47.2090564 C66.3481002,47.2090564 66.4965444,47.1935745 66.6956843,47.1823425 C66.6956843,45.6809006 66.6996307,44.2113332 66.6862737,42.7417657 Z" id="Fill-43"></path>
                    <path d="M14.8590842,26.4648115 L12.6885808,26.4648115 C12.8619175,25.4430053 13.0337364,24.4306097 13.2046446,23.4233747 C13.3755527,22.4161396 13.5455502,21.4134581 13.7155477,20.4113838 C13.7528864,20.4092588 13.7902251,20.4068303 13.8272603,20.4047053 C13.9981685,21.4089046 14.1693802,22.4124968 14.3408955,23.4212497 C14.5127144,24.429699 14.6851404,25.4427017 14.8590842,26.4648115 M24.4736555,26.0437642 C24.3986744,26.7304326 24.360425,27.4371364 24.1591601,28.0901088 C23.6679889,29.6865672 22.7433241,30.0994182 21.0712775,29.8001012 C21.0615634,29.7688338 21.0436529,29.7372628 21.0436529,29.7059954 C21.0406173,25.7611434 21.0375816,21.8159879 21.0390994,17.8708323 C21.0390994,17.3878573 21.2916671,17.1179863 21.7801062,17.0815583 C21.8921224,17.0730584 22.0038351,17.0630407 22.0994586,17.0554516 C22.2072249,16.7206173 22.0918695,16.6234758 21.797106,16.6259044 C20.6626764,16.635315 19.5282469,16.6359221 18.3938174,16.6262079 C18.0683936,16.6234758 18.0213408,16.7673666 18.117875,17.0593979 C19.0552897,17.1216291 19.2013053,17.275234 19.2016089,18.1716671 C19.2019125,20.7113079 19.2016089,23.2509486 19.2016089,25.7905894 C19.2016089,26.9083228 19.2076802,28.0260562 19.1985732,29.1431824 C19.1940197,29.7059954 18.9453984,29.9500632 18.3998887,29.9710094 C17.6940956,29.9980268 17.3953858,29.7242095 17.2114242,28.8089552 C16.6155224,25.8449279 16.0326739,22.8781685 15.443147,19.9129269 C15.2163825,18.772426 14.9853681,17.6328358 14.7552644,16.4886921 L13.9486871,16.4886921 C13.9095269,16.6116367 13.8621705,16.7203137 13.8403137,16.8338477 C13.0868606,20.7486466 12.3285505,24.6625348 11.5908829,28.5800658 C11.4439565,29.3623577 11.2918695,30.0833291 10.1853681,30.062383 C10.3225803,30.2600051 10.4561498,30.4211991 10.5951834,30.4263597 C11.3222262,30.4521629 12.0507867,30.4309132 12.7787402,30.4415381 C13.1469669,30.4466987 13.2164837,30.2952188 13.086557,29.9904376 C12.2241235,29.901189 12.1099823,29.7454591 12.2623729,28.9145965 C12.3507109,28.4325323 12.4363167,27.9501644 12.5079585,27.4653681 C12.5486365,27.1897293 12.6557956,27.0506957 12.9651303,27.0628384 C13.5230863,27.0846952 14.0831672,27.0522135 14.6405161,27.0810524 C14.7768176,27.088338 14.9962965,27.2258538 15.0227068,27.3390842 C15.159919,27.9307361 15.268596,28.5311915 15.3453984,29.1337718 C15.4179509,29.704174 15.2446142,29.8908677 14.6666228,29.9655452 C14.5691778,29.9779914 14.4708222,29.9804199 14.3585024,29.9886162 L14.3585024,30.3993423 L24.8740602,30.3993423 L24.8740602,25.75234 C24.5507614,25.6242348 24.5037086,25.7663041 24.4736555,26.0437642" id="Fill-45"></path>
                    <path d="M53.3169137,23.0283127 L53.3169137,17.2459701 C54.4744144,16.9849026 55.3817759,17.4942879 55.6595396,18.6020035 C55.9099823,19.5986137 55.8981432,20.6152593 55.6337364,21.6085302 C55.3332052,22.7390134 54.6435011,23.1536858 53.3169137,23.0283127 Z M58.0237187,27.9254541 C58.0237187,28.2900379 58.0322186,28.6251758 58.0209866,28.9590994 C58.011576,29.238381 57.9590589,29.5801973 57.6145105,29.524341 C57.4527093,29.4982343 57.3340147,29.1533822 57.2150164,28.9417961 C57.1782848,28.8768328 57.2074273,28.775745 57.2025702,28.6910498 C57.1439818,27.6780471 57.0923754,26.6644371 57.0240729,25.6520415 C56.9585024,24.6742525 56.4230104,24.0291728 55.545702,23.6478927 C55.3374551,23.5574298 55.1158513,23.4979307 54.8144093,23.3947179 C55.0976372,23.3024336 55.3025449,23.2405059 55.5044169,23.1697749 C57.0638401,22.6230508 57.8822565,21.375998 57.764169,19.7282368 C57.6418315,18.0130837 56.7532912,16.9108323 55.0360132,16.721103 C53.5467139,16.5565697 52.0288793,16.6464255 50.5237946,16.6458184 C50.4287781,16.6458184 50.3337617,16.8388869 50.2387453,16.9420997 C51.3224791,17.1269719 51.4357096,17.2517379 51.4366203,18.2419732 C51.4366203,18.5807539 51.4366203,18.919231 51.4366203,19.2574045 C51.4366203,22.4727852 51.4372274,25.6881659 51.4360132,28.9035467 C51.4357096,29.7844978 51.2824083,29.9444776 50.4257425,29.9793878 C50.3950822,29.9806021 50.3656362,30.003066 50.321619,30.02128 L50.321619,30.4371667 C51.6309031,30.4371667 52.9149911,30.4456666 54.1981685,30.4219884 C54.3059347,30.420167 54.4100582,30.2028131 54.5821806,30.012173 C53.3621452,29.916853 53.2932355,29.8403542 53.2926284,28.7614774 C53.2920212,27.2554819 53.2926284,25.7491829 53.2926284,24.2431875 L53.2926284,23.7122489 C54.5946269,23.5668404 55.0949051,23.9678523 55.1899216,25.1954769 C55.2409208,25.8526992 55.2293853,26.5156893 55.2976878,27.1707867 C55.3832937,27.9901138 55.4552391,28.8203693 55.6586289,29.6138932 C55.8280192,30.2759727 56.3975108,30.5746825 57.0641437,30.54979 C57.7826866,30.5227726 58.2623223,30.1952239 58.4295877,29.4915558 C58.5476752,28.9943132 58.5419074,28.4679282 58.5941209,27.9254541 L58.0237187,27.9254541 Z" id="Fill-47"></path>
                    <path d="M69.6379459,46.4092183 C69.6379459,46.8542474 69.2773084,47.2148849 68.8322793,47.2148849 C68.3869466,47.2148849 68.0263091,46.8542474 68.0263091,46.4092183 C68.0263091,45.9641892 68.3869466,45.6035517 68.8322793,45.6035517 C69.2773084,45.6035517 69.6379459,45.9641892 69.6379459,46.4092183" id="Fill-49"></path>
                </g>
            </g>
        </g>
    </g>
</svg>