<?xml version="1.0" encoding="UTF-8"?>
<svg width="113px" height="23px" viewBox="0 0 113 23" version="1.1" xmlns="http://www.w3.org/2000/svg" xmlns:xlink="http://www.w3.org/1999/xlink">
    <!-- Generator: Sketch 49.3 (51167) - http://www.bohemiancoding.com/sketch -->
    <title>Page 1</title>
    <desc>Created with Sketch.</desc>
    <defs>
        <polygon id="path-1" points="0 0.215958655 12.2397359 0.215958655 12.2397359 16.7876019 0 16.7876019"></polygon>
        <polygon id="path-3" points="0 22.5813659 112.032987 22.5813659 112.032987 0 0 0"></polygon>
    </defs>
    <g id="02-Homepage" stroke="none" stroke-width="1" fill="none" fill-rule="evenodd">
        <g id="Homepage-Wireframe" transform="translate(-631.000000, -721.000000)">
            <g id="Group-2" transform="translate(273.000000, 706.000000)">
                <g id="Page-1" transform="translate(358.000000, 15.000000)">
                    <g id="Group-3" transform="translate(0.000000, 0.175142)">
                        <mask id="mask-2" fill="white">
                            <use xlink:href="#path-1"></use>
                        </mask>
                        <g id="Clip-2"></g>
                        <path d="M2.94899517,9.48504007 L5.780395,9.48504007 C8.16740472,9.48504007 9.29481123,10.0944894 9.29481123,11.8276108 C9.29481123,14.0017614 7.18339806,14.2609267 5.66276232,14.2609267 L2.94899517,14.2609267 L2.94899517,9.48504007 Z M-3.73437066e-05,16.7876019 L5.96748697,16.7876019 C9.10361145,16.7876019 12.2397359,15.6672907 12.2397359,12.0606355 C12.2397359,9.92905674 10.7452408,8.29302895 8.66258227,8.05626985 L8.66258227,8.00697616 C10.3665756,7.49648769 11.5417821,6.25555632 11.5417821,4.382396 C11.5417821,1.36203701 8.96394598,0.215958655 6.45930358,0.215958655 L-3.73437066e-05,0.215958655 L-3.73437066e-05,16.7876019 Z M2.94899517,2.74226041 L5.38380483,2.74226041 C7.60911631,2.74226041 8.58976205,3.44581584 8.58976205,4.87383918 C8.58976205,6.11551742 7.60911631,6.95799144 5.64072954,6.95799144 L2.94899517,6.95799144 L2.94899517,2.74226041 Z" id="Fill-1" fill="#BABDC2" mask="url(#mask-2)"></path>
                    </g>
                    <mask id="mask-4" fill="white">
                        <use xlink:href="#path-3"></use>
                    </mask>
                    <g id="Clip-5"></g>
                    <polygon id="Fill-4" fill="#BABDC2" mask="url(#mask-4)" points="14.1741773 16.9626318 16.9749553 16.9626318 16.9749553 0 14.1741773 0"></polygon>
                    <path d="M18.8541653,11.3457649 C18.8541653,14.8803468 21.5679324,17.2419628 24.9650894,17.2419628 C28.3581386,17.2419628 31.0760136,14.8807202 31.0760136,11.3457649 C31.0760136,7.81080967 28.358512,5.44620617 24.9650894,5.44620617 C21.5679324,5.44583273 18.8541653,7.81118311 18.8541653,11.3457649 M21.6635323,11.3457649 C21.6635323,9.59023729 22.9048371,7.97698916 24.9650894,7.97698916 C27.0253417,7.97698916 28.2629121,9.59061073 28.2629121,11.3457649 C28.2629121,13.1009191 27.0253417,14.7152876 24.9650894,14.7152876 C22.9044637,14.7152876 21.6635323,13.1012926 21.6635323,11.3457649" id="Fill-6" fill="#BABDC2" mask="url(#mask-4)"></path>
                    <path d="M32.3425627,11.3457649 C32.3425627,14.8803468 35.0567033,17.2419628 38.4534869,17.2419628 C41.846536,17.2419628 44.564411,14.8807202 44.564411,11.3457649 C44.564411,7.81080967 41.8469095,5.44620617 38.4534869,5.44620617 C35.0563299,5.44583273 32.3425627,7.81118311 32.3425627,11.3457649 M35.1519298,11.3457649 C35.1519298,9.59023729 36.3932346,7.97698916 38.4534869,7.97698916 C40.5137391,7.97698916 41.7513096,9.59061073 41.7513096,11.3457649 C41.7513096,13.1009191 40.5137391,14.7152876 38.4534869,14.7152876 C36.3932346,14.7152876 35.1519298,13.1012926 35.1519298,11.3457649" id="Fill-7" fill="#BABDC2" mask="url(#mask-4)"></path>
                    <path d="M46.275537,5.72706819 L48.9452386,5.72706819 L48.9452386,7.48446302 L48.9893041,7.48446302 C49.4814942,6.43062362 50.5573664,5.44437633 52.4301533,5.44437633 C54.1636481,5.44437633 55.3608874,6.12179116 55.9445695,7.52852859 C56.763517,6.10349275 57.9570218,5.44437633 59.6389824,5.44437633 C62.6354414,5.44437633 63.6900277,7.57782228 63.6900277,10.2699301 L63.6900277,16.9630426 L60.8806606,16.9630426 L60.8806606,10.5966875 C60.8806606,9.19368447 60.4620377,7.9759062 58.7983755,7.9759062 C57.0432213,7.9759062 56.3855987,9.4267092 56.3855987,10.875645 L56.3855987,16.9626692 L53.579966,16.9626692 L53.579966,10.2695567 C53.579966,8.88485201 53.0179432,7.9759062 51.6593792,7.9759062 C49.811986,7.9759062 49.084904,9.32924212 49.084904,10.8297123 L49.084904,16.9626692 L46.275537,16.9626692 L46.275537,5.72706819 Z" id="Fill-8" fill="#BABDC2" mask="url(#mask-4)"></path>
                    <path d="M65.9668735,16.9626318 L68.636575,16.9626318 L68.636575,15.2784307 L68.6806406,15.2784307 C69.502949,16.6317666 70.9757848,17.2415893 72.547208,17.2415893 C76.006729,17.2415893 78.0927484,14.6671142 78.0927484,11.3453915 C78.0927484,8.02180161 75.867437,5.44583273 72.6614797,5.44583273 C70.5567884,5.44583273 69.4297554,6.42647847 68.8456998,7.1572948 L68.7758671,7.1572948 L68.7758671,0 L65.9665,0 L65.9665,16.9626318 L65.9668735,16.9626318 Z M75.2837548,11.3457649 C75.2837548,13.1031598 74.0461844,14.7152876 71.9821977,14.7152876 C69.921572,14.7152876 68.6806406,13.1031598 68.6806406,11.3457649 C68.6806406,9.59023729 69.921572,7.97250792 71.9821977,7.97250792 C74.0461844,7.97250792 75.2837548,9.59023729 75.2837548,11.3457649 Z" id="Fill-9" fill="#BABDC2" mask="url(#mask-4)"></path>
                    <path d="M90.7408004,12.3282032 L90.7408004,11.5574291 C90.7408004,7.64604924 88.6110889,5.44613148 85.4745909,5.44613148 C82.074073,5.44613148 79.3636668,7.81110842 79.3636668,11.3456902 C79.3636668,14.8802721 82.074073,17.2418881 85.4745909,17.2418881 C87.248417,17.2418881 88.9154401,16.610406 90.2228432,14.9979048 L88.2103909,13.4795096 C87.5090761,14.3414024 86.5945287,14.9979048 85.1915256,14.9979048 C83.6238368,14.9979048 82.3563914,13.9899981 82.1730338,12.3282032 L90.7408004,12.3282032 Z M82.1730338,10.2220181 C82.382532,8.60428875 83.4143386,7.55231653 85.0742664,7.55231653 C86.8297941,7.55231653 87.9056662,8.5826294 87.9314334,10.2220181 L82.1730338,10.2220181 Z" id="Fill-10" fill="#BABDC2" mask="url(#mask-4)"></path>
                    <path d="M92.5695218,5.72706819 L95.3788888,5.72706819 L95.3788888,7.5064958 L95.4266887,7.5064958 C96.036138,6.21925824 97.2737085,5.44437633 98.7499052,5.44437633 C99.1024298,5.44437633 99.4291872,5.51607624 99.7559447,5.61092926 L99.7559447,8.32544329 C99.2895218,8.20930436 98.8417707,8.11557166 98.3970072,8.11557166 C95.7530727,8.11557166 95.3785154,10.3408831 95.3785154,10.9510793 L95.3785154,16.9630426 L92.5691483,16.9630426 L92.5691483,5.72706819 L92.5695218,5.72706819 Z" id="Fill-11" fill="#BABDC2" mask="url(#mask-4)"></path>
                    <path d="M109.363248,5.72706819 L109.363248,7.4127631 L109.319182,7.4127631 C108.496874,6.05382562 107.020677,5.44437633 105.452615,5.44437633 C101.989733,5.44437633 99.9070746,8.02034521 99.9070746,11.3458023 C99.9070746,14.5259923 102.132386,17.1023346 105.500415,17.1023346 C106.906779,17.1023346 108.357209,16.566079 109.180264,15.4663069 L109.220222,15.4663069 L109.220222,16.2871215 C109.220222,18.5086986 108.382976,20.0551015 105.665474,20.0551015 C104.097412,20.0551015 102.925566,19.4673116 101.801894,18.4317706 L100.119934,20.7302757 C101.706294,22.1403741 103.604848,22.5814033 105.690868,22.5814033 C110.068671,22.5814033 112.03295,20.0031938 112.03295,15.9562563 L112.03295,5.72706819 L109.363248,5.72706819 Z M106.040032,7.9759062 C108.074517,7.9759062 109.363248,9.32924212 109.363248,11.2774633 C109.363248,13.1468892 108.09991,14.575286 106.017625,14.575286 C104.122806,14.575286 102.716068,13.1009565 102.716068,11.3211554 C102.716068,9.32924212 104.071271,7.9759062 106.040032,7.9759062 Z" id="Fill-12" fill="#BABDC2" mask="url(#mask-4)"></path>
                </g>
            </g>
        </g>
    </g>
</svg>